<svg width="590" height="186" viewBox="0 0 590 186" fill="none" xmlns="http://www.w3.org/2000/svg">
<g clip-path="url(#clip0_61_27)">
<path d="M225.7 86.2C225.7 97.8 217.6 103.9 207 103.9C204.1 103.9 201.1 103.4 197.9 102.5C196 102 195.1 100.4 195.1 99C195.1 97.4 196.2 95.9 198.2 95.9C198.8 95.9 199.4 96 200 96.2C202.8 97.1 205.5 97.6 207.9 97.6C214.6 97.6 219.3 93.9 219.4 85.9C219.5 80 219.5 73 219.5 65.6C219.5 56.5 219.5 47 219.3 38.4C219.3 37.3 218.6 36.4 217.4 36.4C215.8 36.4 214.1 36.5 212.9 36.5C212.3 36.5 209.7 36.4 209.8 33.6C209.8 32.2 210.7 30.8 212.7 30.8C212.8 30.8 212.8 30.8 212.9 30.8C215.2 30.9 218.1 31 221.1 31C224.7 31 228.5 30.9 231.7 30.8C234.7 30.7 234.9 33.3 234.9 33.7C234.8 35.1 233.9 36.5 231.9 36.5C231.8 36.5 231.8 36.5 231.7 36.5C230.2 36.4 229.2 36.4 227.6 36.4C226.3 36.4 225.7 37.2 225.7 38.4C225.6 46.1 225.6 54.8 225.6 63.1C225.6 71.4 225.6 79.4 225.7 85.9C225.7 86 225.7 86.1 225.7 86.2ZM255.034 34.2C255.034 35 254.534 39 250.034 39C249.534 39 245.334 39 245.334 34.2C245.334 31 248.134 29.5 250.134 29.5C253.234 29.5 255.034 31.8 255.034 34.2ZM260.234 102.9H260.134C257.434 102.8 254.434 102.7 251.634 102.7C248.834 102.7 246.034 102.8 243.634 102.9C243.234 102.9 240.534 103 240.534 100.1C240.534 98.7 241.534 97.3 243.534 97.3H243.634C244.934 97.3 245.534 97.4 247.234 97.4C248.434 97.4 249.034 96.7 249.034 95.4C249.134 85.9 249.234 76.1 249.234 67.4C249.234 64.5 248.234 62.9 245.834 62.8C245.034 62.8 244.534 62.9 243.734 62.9C243.634 62.9 243.634 62.9 243.534 62.9C241.734 62.9 240.834 61.5 240.834 60.2C240.834 58.7 241.834 57.2 243.734 57.2C245.634 57.2 245.334 57.3 247.634 57.3C253.134 57.3 255.034 61.3 255.034 65.5C255.034 65.6 255.034 65.7 255.034 65.8C254.934 72.8 254.834 80.4 254.834 87.7C254.834 90.3 254.834 93 254.834 95.5C254.834 96.5 255.434 97.4 256.634 97.4C258.234 97.4 258.634 97.4 260.134 97.3C260.534 97.3 263.234 97.2 263.234 100.1C263.234 101.5 262.234 102.9 260.234 102.9ZM343.361 102.8H343.261C340.761 102.7 338.161 102.6 335.761 102.6C333.261 102.6 330.961 102.7 328.661 102.8C327.161 102.9 325.861 101.8 325.861 100.2C325.861 98.8 326.761 97.5 328.561 97.5H328.661C329.861 97.5 330.061 97.6 331.561 97.6C332.561 97.6 333.261 97 333.261 95.9C333.261 93 333.361 89 333.361 85C333.361 79.5 333.261 74.1 333.161 72.2C332.761 64.5 328.261 61.4 323.261 61.4C317.061 61.4 310.161 66.3 309.861 73.1C309.761 75.3 309.661 80.1 309.661 85.2C309.661 88.9 309.761 92.7 309.761 95.9C309.761 97 310.361 97.6 311.561 97.6C313.061 97.6 312.861 97.6 314.261 97.5C316.061 97.4 317.061 98.7 317.061 100.1C317.061 101.4 316.161 102.8 314.361 102.8H314.261C311.761 102.7 309.161 102.6 306.761 102.6C304.261 102.6 301.961 102.7 299.661 102.8C297.861 102.9 296.861 101.6 296.861 100.2C296.861 98.9 297.761 97.5 299.561 97.5H299.661C300.861 97.5 301.161 97.6 302.661 97.6C303.661 97.6 304.361 96.9 304.361 95.8C304.361 92.4 304.461 88.4 304.461 84.5C304.461 79.1 304.361 74.1 304.261 72.2C303.861 64.5 299.361 61.4 294.461 61.4C288.261 61.4 281.461 66.4 281.161 73.8C281.161 75.4 281.061 79 281.061 83.1C281.061 87.3 281.161 91.9 281.161 95.8C281.161 96.9 281.761 97.6 282.961 97.6C284.461 97.6 284.161 97.6 285.561 97.5H285.661C287.461 97.5 288.361 98.8 288.361 100.1C288.361 101.5 287.461 102.8 285.661 102.8H285.561C283.061 102.7 280.461 102.6 277.961 102.6C275.561 102.6 273.161 102.7 270.861 102.8C268.361 102.9 268.061 100.9 267.961 100.2C268.061 98.8 268.961 97.5 270.761 97.5H270.861C272.061 97.5 272.361 97.6 273.861 97.6C274.861 97.6 275.561 97 275.561 95.9C275.661 89.2 275.761 81.7 275.761 74.7C275.761 72.1 275.761 69.6 275.761 67.2C275.761 64.7 274.961 62.7 272.661 62.7C271.761 62.7 271.761 62.8 270.461 62.8C268.761 62.8 267.861 61.4 267.861 60C267.861 58.6 268.761 57.2 270.561 57.2C271.461 57.2 272.461 57.1 273.461 57.1C280.561 57.1 281.261 62 281.361 62.3C281.461 62.6 281.461 62.7 281.561 62.7C281.561 62.7 281.661 62.6 281.761 62.5C285.061 58.4 290.161 56.3 295.161 56.3C300.761 56.3 306.261 59.1 308.361 65C312.161 59.1 318.161 56.2 323.861 56.2C331.461 56.2 338.561 61.4 338.861 71.2C338.961 75.4 339.061 88.1 339.061 95.9C339.061 96.9 339.561 97.6 340.661 97.6C342.161 97.6 341.861 97.5 343.261 97.5H343.361C345.161 97.5 346.061 98.8 346.061 100.1C346.061 101.5 345.161 102.8 343.361 102.8ZM376.773 104.1C363.473 104.1 353.673 94.5 353.673 80.1C353.673 66.2 363.473 56.2 376.773 56.2C390.073 56.2 400.073 66.2 400.073 80.1C400.073 94.5 390.073 104.1 376.773 104.1ZM376.773 98.8C386.373 98.8 394.173 91.3 394.173 80.1C394.173 68.8 386.373 61.4 376.773 61.4C367.173 61.4 359.473 68.8 359.473 80.1C359.473 91.3 367.173 98.8 376.773 98.8ZM433.8 62.6H425C423.4 62.6 423.4 62.8 423.4 64C423.4 67.8 423.1 78.1 423.1 85.5C423.1 93.3 423.3 98.6 431.1 98.6C432 98.6 432.9 98.5 433.9 98.4C434 98.4 434.1 98.4 434.3 98.4C435.8 98.4 436.7 99.7 436.7 101C436.7 103.6 434.3 104.1 430.3 104.1C417.5 104.1 417.5 93.2 417.5 88.8C417.5 82.4 417.7 70.2 417.7 65.3C417.7 64.6 417.7 64.1 417.7 63.7C417.7 62.7 417.4 62.6 416.7 62.6H410.8C408.9 62.6 408 61.3 408 59.9C408 58.6 408.9 57.3 410.8 57.3H416.6C417.5 57.3 417.7 57.2 417.7 56.3C417.7 55.9 417.8 51.1 417.8 47.6C417.8 46.7 417.8 45.9 417.8 45.2V45.1C417.8 43.2 419.3 42.2 420.7 42.2C422.2 42.2 423.6 43.2 423.6 45.3C423.6 48.2 423.4 56.2 423.4 56.2C423.4 57.3 423.6 57.3 424.9 57.3H433.8C435.7 57.3 436.6 58.6 436.6 59.9C436.6 61.3 435.7 62.6 433.8 62.6ZM468.859 62.6H460.059C458.459 62.6 458.459 62.8 458.459 64C458.459 67.8 458.159 78.1 458.159 85.5C458.159 93.3 458.359 98.6 466.159 98.6C467.059 98.6 467.959 98.5 468.959 98.4C469.059 98.4 469.159 98.4 469.359 98.4C470.859 98.4 471.759 99.7 471.759 101C471.759 103.6 469.359 104.1 465.359 104.1C452.559 104.1 452.559 93.2 452.559 88.8C452.559 82.4 452.759 70.2 452.759 65.3C452.759 64.6 452.759 64.1 452.759 63.7C452.759 62.7 452.459 62.6 451.759 62.6H445.859C443.959 62.6 443.059 61.3 443.059 59.9C443.059 58.6 443.959 57.3 445.859 57.3H451.659C452.559 57.3 452.759 57.2 452.759 56.3C452.759 55.9 452.859 51.1 452.859 47.6C452.859 46.7 452.859 45.9 452.859 45.2V45.1C452.859 43.2 454.359 42.2 455.759 42.2C457.259 42.2 458.659 43.2 458.659 45.3C458.659 48.2 458.459 56.2 458.459 56.2C458.459 57.3 458.659 57.3 459.959 57.3H468.859C470.759 57.3 471.659 58.6 471.659 59.9C471.659 61.3 470.759 62.6 468.859 62.6ZM523.517 94.2C523.517 96.5 516.517 104.1 503.917 104.1C491.217 104.1 481.317 94.6 481.317 80.5C481.317 65.9 491.817 56.3 503.617 56.3C517.317 56.3 523.317 67 523.317 72.7C523.317 76.4 521.117 79.2 516.017 79.4C513.717 79.5 510.317 79.5 506.617 79.5C499.117 79.5 490.617 79.4 488.417 79.4C487.417 79.4 487.217 79.8 487.217 81.2C487.217 92.1 494.417 98.8 504.017 98.8C511.317 98.8 515.417 95.7 518.517 92.2C519.117 91.6 519.817 91.3 520.517 91.3C522.017 91.3 523.517 92.6 523.517 94.2ZM517.417 71.7C517.417 68.8 513.917 61.3 503.717 61.3C494.117 61.3 488.017 69.9 488.017 73.6C488.017 74.6 488.917 74.6 500.517 74.6C505.717 74.6 511.317 74.6 514.117 74.5C516.517 74.4 517.417 73.3 517.417 71.7ZM550.847 102.8H550.747C548.147 102.7 545.247 102.6 542.547 102.6C539.847 102.6 537.147 102.7 534.847 102.8C532.547 102.9 531.847 101.3 531.847 100.2C531.847 98.8 532.847 97.4 534.747 97.4H534.847C536.147 97.4 536.647 97.5 538.247 97.5C539.247 97.5 539.847 96.8 539.847 95.7C539.947 88 540.047 81.9 540.047 75.2C540.047 72.7 540.047 70.2 540.047 67.4C540.047 64.7 539.247 62.9 536.747 62.8C535.847 62.8 535.947 62.8 534.647 62.9H534.547C532.747 62.9 531.847 61.5 531.847 60.1C531.847 58.6 532.747 57.2 534.647 57.2H537.447C541.447 57.2 544.747 58.9 545.347 62.5C545.347 62.8 545.547 62.8 545.647 62.8C545.847 62.8 546.047 62.7 546.247 62.5C548.947 58.8 554.747 56.5 560.447 56.3C562.347 56.2 563.747 57.2 563.747 59.1C563.747 60.5 562.747 61.9 560.947 61.9H560.847C560.647 61.9 560.547 61.9 560.347 61.9C553.447 61.9 545.947 66.4 545.747 73.8C545.747 75.7 545.647 78.8 545.647 82.6C545.647 86.4 545.747 90.9 545.747 95.7C545.747 96.7 546.347 97.5 547.447 97.5C548.947 97.5 549.347 97.5 550.747 97.4C552.447 97.3 553.747 98.5 553.747 100.1C553.747 101.4 552.747 102.8 550.847 102.8Z" fill="white"/>
<path d="M215.295 144.505V133.305L210.815 135.58C210.815 139.99 210.78 144.505 210.78 146.675C210.78 149.37 213.37 149.37 215.82 149.37C222.785 149.37 223.66 148.53 223.66 144.89C223.66 144.225 224.08 143.945 224.57 143.945C224.955 143.945 225.62 144.155 225.62 145.17C225.62 150.56 222.33 151.015 216.415 151.015C212.74 151.015 209.03 150.945 209.03 146.92V136.49C205.46 138.31 205.46 138.31 205.32 138.31C204.865 138.31 204.55 137.89 204.55 137.47C204.55 137.19 204.655 136.91 205.005 136.735C205.005 136.735 206.72 135.86 209.03 134.67V126.445C209.03 125.85 209.485 125.57 209.94 125.57C210.395 125.57 210.85 125.85 210.85 126.375C210.85 128.265 210.815 130.925 210.815 133.725L215.295 131.485V123.295C215.295 122.735 215.75 122.455 216.205 122.455C216.625 122.455 217.08 122.735 217.08 123.295V130.575C219.915 129.14 220.58 128.825 221.49 128.825C223.695 128.825 223.8 130.925 223.8 132.85C223.8 140.69 223.17 142.79 220.195 142.79C218.655 142.79 218.445 142.335 218.445 141.775C218.445 141.32 218.725 140.83 219.145 140.83C219.215 140.83 219.25 140.865 219.32 140.865C219.67 140.97 219.985 141.005 220.23 141.005C221.455 141.005 222.015 139.885 222.015 133.55C222.015 131.38 221.84 130.61 221 130.61C220.825 130.61 220.475 130.645 217.08 132.395V144.505C217.08 145.03 216.625 145.275 216.205 145.275C215.75 145.275 215.295 145.03 215.295 144.505ZM200.245 144.365L200.21 134.145H196.08C195.555 134.145 195.275 133.725 195.275 133.34C195.275 132.92 195.555 132.5 196.08 132.5L200.21 132.535V124.275C200.21 123.68 200.665 123.4 201.155 123.4C201.61 123.4 202.065 123.68 202.065 124.275L202.03 132.535L205.775 132.5C206.3 132.5 206.545 132.92 206.545 133.305C206.545 133.725 206.3 134.145 205.775 134.145H202.03L201.995 143.63C203.465 143 204.83 142.335 205.88 141.775C206.02 141.705 206.16 141.67 206.3 141.67C206.72 141.67 207.07 142.055 207.07 142.475C207.07 142.755 206.93 143.035 206.545 143.245C204.13 144.47 196.885 147.795 195.835 147.795C195.275 147.795 194.96 147.34 194.96 146.885C194.96 146.535 195.17 146.185 195.59 146.045C196.99 145.625 198.635 145.03 200.245 144.365ZM258.485 126.235C258.31 126.235 258.1 126.165 257.96 125.99C257.155 125.01 256.14 124.345 254.985 123.75C254.775 123.645 254.67 123.47 254.67 123.295C254.67 122.91 255.055 122.525 255.545 122.525C256.07 122.525 259.325 124.135 259.325 125.36C259.325 125.85 258.905 126.235 258.485 126.235ZM254.11 142.195V142.16C255.685 139.78 256.805 137.085 257.54 134.18C257.645 133.795 257.925 133.62 258.275 133.62C258.765 133.62 259.29 133.97 259.29 134.53C259.29 134.67 258.17 139.5 254.565 144.33C254.67 144.715 255.825 149.405 257.47 149.405C258.485 149.405 259.185 147.48 259.325 145.8C259.36 145.345 259.745 145.1 260.13 145.1C260.62 145.1 261.11 145.415 261.11 146.01C261.11 147.41 260.06 151.295 257.435 151.295C255.3 151.295 254.11 148.81 253.235 145.975C249.14 150.49 244.94 151.82 244.555 151.82C243.995 151.82 243.68 151.4 243.68 150.98C243.68 150.63 243.89 150.245 244.38 150.07C247.74 148.81 250.505 146.71 252.71 144.015C251.695 139.675 251.345 134.355 251.17 129.595L240.845 129.63C240.25 129.63 239.97 129.21 239.97 128.79C239.97 128.37 240.25 127.95 240.845 127.95L251.135 127.985C251.1 126.725 250.995 123.715 250.995 122.875C250.995 122.315 251.45 122.035 251.94 122.035C252.395 122.035 252.85 122.315 252.85 122.945C252.85 124.415 252.85 126.13 252.885 127.985L259.36 127.95C259.955 127.95 260.235 128.37 260.235 128.79C260.235 129.21 259.955 129.63 259.36 129.63L252.92 129.595C253.06 133.76 253.41 138.415 254.11 142.195ZM245.045 141.215C243.295 141.215 241.755 141.11 241.72 139.115C241.72 138.345 241.685 137.575 241.685 136.84C241.685 136.07 241.72 135.265 241.72 134.46C241.79 132.5 243.155 132.36 245.36 132.36C247.25 132.36 248.79 132.465 248.86 134.425C248.895 135.335 248.93 136.175 248.93 137.015C248.93 140.62 248.895 141.215 245.045 141.215ZM234.72 142.475V132.325H231.57C231.045 132.325 230.765 131.905 230.765 131.485C230.765 131.1 231.045 130.68 231.57 130.68L234.685 130.715V124.135C234.685 123.575 235.14 123.295 235.595 123.295C236.085 123.295 236.54 123.575 236.54 124.135L236.505 130.715L239.2 130.68C239.725 130.68 239.97 131.1 239.97 131.485C239.97 131.905 239.725 132.325 239.2 132.325H236.505V141.74C237.555 141.285 238.5 140.76 239.41 140.27C239.55 140.2 239.69 140.165 239.795 140.165C240.25 140.165 240.565 140.585 240.565 141.005C240.565 141.285 240.425 141.6 240.075 141.775C237.24 143.35 231.92 145.625 231.08 145.625C230.52 145.625 230.205 145.135 230.205 144.68C230.205 144.33 230.38 143.98 230.765 143.875C232.13 143.455 233.46 143 234.72 142.475ZM250.365 143.315C246.515 145.59 240.075 147.305 239.865 147.305C239.305 147.305 239.025 146.85 239.025 146.395C239.025 146.045 239.235 145.66 239.655 145.59C243.05 144.855 247.215 143.28 249.805 141.985C249.91 141.95 250.015 141.915 250.12 141.915C250.47 141.915 250.75 142.265 250.75 142.65C250.75 142.895 250.645 143.14 250.365 143.315ZM246.27 133.76H244.31C243.225 133.83 243.19 134.46 243.19 136.77C243.19 139.675 243.19 139.78 245.29 139.78C247.32 139.78 247.39 139.745 247.39 136.7C247.39 134.145 247.32 133.83 246.27 133.76ZM285.225 134.845C284.14 138.17 281.725 141.6 278.89 144.295C279.1 144.855 279.345 145.38 279.625 145.835C279.765 146.045 279.8 146.29 279.8 146.5C279.8 147.095 279.38 147.585 278.855 147.585C278.365 147.585 278.05 147.34 277.35 145.695C275.81 146.955 273.15 148.845 271.505 148.845C270.105 148.845 268.775 147.9 268.775 145.59C268.775 142.3 271.47 137.82 276.545 135.02C276.685 133.34 276.895 131.59 277.14 129.665C276.51 129.735 275.88 129.735 275.285 129.735C272.345 129.735 271.225 129.315 271.225 128.51C271.225 128.09 271.505 127.67 272.065 127.67C272.205 127.67 272.345 127.705 272.52 127.74C273.325 127.985 274.27 128.09 275.355 128.09C275.985 128.09 276.65 128.055 277.35 127.985C277.525 126.69 277.7 125.36 277.91 123.995C278.015 123.33 278.435 123.05 278.855 123.05C279.345 123.05 279.835 123.4 279.835 123.925V124.1C279.625 125.36 279.38 126.585 279.205 127.74C281.235 127.39 283.335 126.795 285.19 126.095C285.33 126.025 285.47 126.025 285.61 126.025C286.135 126.025 286.52 126.41 286.52 126.865C286.52 127.215 286.275 127.6 285.645 127.81C283.51 128.545 281.165 129.14 278.925 129.455C278.68 131.17 278.435 132.745 278.295 134.215C280.64 133.305 282.565 133.13 283.72 133.13C283.86 132.01 284.035 131.52 284.77 131.52C285.26 131.52 285.75 131.835 285.75 132.43C285.75 132.465 285.75 132.465 285.645 133.235C290.44 133.83 293.065 137.12 293.065 140.795C293.065 148.285 283.685 151.33 282.88 151.33C282.25 151.33 281.9 150.91 281.9 150.49C281.9 150.07 282.18 149.65 282.775 149.475C288.34 147.795 291.035 144.015 291.035 140.69C291.035 137.855 289.075 135.37 285.225 134.845ZM276.825 143.875C276.51 142.44 276.37 140.83 276.37 139.01C276.37 138.31 276.405 137.575 276.44 136.84C273.22 138.765 270.49 142.65 270.49 145.345C270.49 146.43 271.015 146.955 271.75 146.955C272.275 146.955 274.2 146.185 276.825 143.875ZM283.3 134.74C282.88 134.74 280.675 134.88 278.155 135.93C278.085 136.805 278.05 137.645 278.05 138.415C278.05 139.885 278.155 141.215 278.4 142.405C280.57 140.165 282.39 137.47 283.3 134.74ZM317.635 148.495C320.96 147.935 323.515 145.205 323.515 142.335C323.515 139.15 320.645 137.75 317.565 137.75C313.995 137.75 310.215 139.605 308.255 142.335C308.045 142.65 307.695 142.79 307.38 142.79C306.82 142.79 306.295 142.37 306.295 141.81C306.295 141.53 306.435 141.18 306.785 140.83C313.05 134.67 318.545 128.265 318.545 127.95C318.545 127.915 318.51 127.88 318.44 127.88C318.37 127.88 318.3 127.88 318.195 127.915C316.305 128.51 310.39 129.7 310.18 129.7C309.515 129.7 309.13 129.245 309.13 128.755C309.13 128.335 309.445 127.88 310.11 127.81C312.56 127.53 316.62 126.655 318.405 126.2C318.685 126.13 318.965 126.095 319.21 126.095C320.19 126.095 320.89 126.62 320.89 127.425C320.89 128.09 320.68 128.58 316.76 132.675L311.93 137.68C313.68 136.77 315.885 136.21 318.055 136.21C322.815 136.21 325.475 138.975 325.475 142.23C325.475 146.57 321.415 150.28 315.78 150.28C311.685 150.28 309.34 148.39 309.34 146.29C309.34 144.96 310.355 143.28 313.155 143.28C315.57 143.28 317.635 144.855 317.635 148.25V148.495ZM315.85 148.67V148.425C315.85 146.115 314.905 144.785 313.26 144.785C311.265 144.785 311.055 146.08 311.055 146.29C311.055 147.48 312.595 148.67 315.36 148.67H315.85ZM355.225 134.845C354.14 138.17 351.725 141.6 348.89 144.295C349.1 144.855 349.345 145.38 349.625 145.835C349.765 146.045 349.8 146.29 349.8 146.5C349.8 147.095 349.38 147.585 348.855 147.585C348.365 147.585 348.05 147.34 347.35 145.695C345.81 146.955 343.15 148.845 341.505 148.845C340.105 148.845 338.775 147.9 338.775 145.59C338.775 142.3 341.47 137.82 346.545 135.02C346.685 133.34 346.895 131.59 347.14 129.665C346.51 129.735 345.88 129.735 345.285 129.735C342.345 129.735 341.225 129.315 341.225 128.51C341.225 128.09 341.505 127.67 342.065 127.67C342.205 127.67 342.345 127.705 342.52 127.74C343.325 127.985 344.27 128.09 345.355 128.09C345.985 128.09 346.65 128.055 347.35 127.985C347.525 126.69 347.7 125.36 347.91 123.995C348.015 123.33 348.435 123.05 348.855 123.05C349.345 123.05 349.835 123.4 349.835 123.925V124.1C349.625 125.36 349.38 126.585 349.205 127.74C351.235 127.39 353.335 126.795 355.19 126.095C355.33 126.025 355.47 126.025 355.61 126.025C356.135 126.025 356.52 126.41 356.52 126.865C356.52 127.215 356.275 127.6 355.645 127.81C353.51 128.545 351.165 129.14 348.925 129.455C348.68 131.17 348.435 132.745 348.295 134.215C350.64 133.305 352.565 133.13 353.72 133.13C353.86 132.01 354.035 131.52 354.77 131.52C355.26 131.52 355.75 131.835 355.75 132.43C355.75 132.465 355.75 132.465 355.645 133.235C360.44 133.83 363.065 137.12 363.065 140.795C363.065 148.285 353.685 151.33 352.88 151.33C352.25 151.33 351.9 150.91 351.9 150.49C351.9 150.07 352.18 149.65 352.775 149.475C358.34 147.795 361.035 144.015 361.035 140.69C361.035 137.855 359.075 135.37 355.225 134.845ZM346.825 143.875C346.51 142.44 346.37 140.83 346.37 139.01C346.37 138.31 346.405 137.575 346.44 136.84C343.22 138.765 340.49 142.65 340.49 145.345C340.49 146.43 341.015 146.955 341.75 146.955C342.275 146.955 344.2 146.185 346.825 143.875ZM353.3 134.74C352.88 134.74 350.675 134.88 348.155 135.93C348.085 136.805 348.05 137.645 348.05 138.415C348.05 139.885 348.155 141.215 348.4 142.405C350.57 140.165 352.39 137.47 353.3 134.74ZM387.635 148.495C390.96 147.935 393.515 145.205 393.515 142.335C393.515 139.15 390.645 137.75 387.565 137.75C383.995 137.75 380.215 139.605 378.255 142.335C378.045 142.65 377.695 142.79 377.38 142.79C376.82 142.79 376.295 142.37 376.295 141.81C376.295 141.53 376.435 141.18 376.785 140.83C383.05 134.67 388.545 128.265 388.545 127.95C388.545 127.915 388.51 127.88 388.44 127.88C388.37 127.88 388.3 127.88 388.195 127.915C386.305 128.51 380.39 129.7 380.18 129.7C379.515 129.7 379.13 129.245 379.13 128.755C379.13 128.335 379.445 127.88 380.11 127.81C382.56 127.53 386.62 126.655 388.405 126.2C388.685 126.13 388.965 126.095 389.21 126.095C390.19 126.095 390.89 126.62 390.89 127.425C390.89 128.09 390.68 128.58 386.76 132.675L381.93 137.68C383.68 136.77 385.885 136.21 388.055 136.21C392.815 136.21 395.475 138.975 395.475 142.23C395.475 146.57 391.415 150.28 385.78 150.28C381.685 150.28 379.34 148.39 379.34 146.29C379.34 144.96 380.355 143.28 383.155 143.28C385.57 143.28 387.635 144.855 387.635 148.25V148.495ZM385.85 148.67V148.425C385.85 146.115 384.905 144.785 383.26 144.785C381.265 144.785 381.055 146.08 381.055 146.29C381.055 147.48 382.595 148.67 385.36 148.67H385.85ZM425.47 146.85C420.605 150.875 415.635 151.715 414.865 151.715C414.305 151.715 413.92 151.225 413.92 150.735C413.92 150.35 414.165 150 414.725 149.895C418.26 149.3 421.48 147.83 424.105 145.73C421.025 142.895 419.625 140.305 419.625 139.85C419.625 139.395 420.185 139.045 420.64 139.045C420.92 139.045 421.165 139.15 421.305 139.395C422.32 141.355 423.65 143.105 425.365 144.61C427.99 142.055 429.46 138.87 429.46 138.275C429.46 137.855 429.18 137.54 428.445 137.54H423.58C421.55 137.54 419.38 137.54 417.98 137.575C417.49 137.575 417.245 137.19 417.245 136.805C417.245 136.385 417.49 136 417.98 136H428.795C430.615 136 431.56 136.84 431.56 138.03C431.56 139.08 429.88 142.685 426.73 145.73C428.935 147.34 431.665 148.635 434.99 149.51C435.48 149.65 435.725 150.035 435.725 150.42C435.725 150.945 435.375 151.435 434.675 151.435C434.115 151.435 429.705 150.175 425.47 146.85ZM410.35 148.075V139.5C407.165 141.145 406.675 141.355 406.29 141.355C405.765 141.355 405.415 140.935 405.415 140.515C405.415 140.165 405.59 139.85 406.01 139.675C407.55 139.01 408.985 138.345 410.35 137.645V130.82H406.325C405.765 130.82 405.485 130.4 405.485 130.015C405.485 129.595 405.765 129.175 406.325 129.175H410.35L410.315 122.56C410.315 121.93 410.805 121.615 411.26 121.615C411.715 121.615 412.17 121.93 412.17 122.525V129.175H415.285C415.845 129.175 416.09 129.595 416.09 129.98C416.09 130.4 415.845 130.82 415.285 130.82H412.17V136.665C413.045 136.175 413.885 135.615 414.725 135.055C414.83 134.985 414.97 134.95 415.075 134.95C415.495 134.95 415.95 135.335 415.95 135.79C415.95 136.28 415.6 136.665 412.17 138.555V143.91C412.17 144.47 412.17 146.955 412.205 148.215V148.32C412.205 150.245 411.33 151.575 408.74 151.575C407.55 151.575 405.94 151.505 405.94 150.455C405.94 150 406.255 149.545 406.78 149.545H406.92C407.55 149.65 408.145 149.755 408.635 149.755C409.65 149.755 410.315 149.37 410.35 148.075ZM435.375 129.245C435.375 133.375 433.38 133.69 430.825 133.69C427.745 133.69 427.5 132.535 427.5 131.1C427.5 130.05 427.535 128.44 427.535 126.935V125.85C427.535 124.38 426.625 124.38 424.945 124.38C424.14 124.38 423.37 124.415 422.88 124.45C422.04 124.52 421.62 125.01 421.62 125.92C421.62 129.77 421.41 132.15 417.91 134.32C417.7 134.46 417.455 134.53 417.28 134.53C416.685 134.53 416.265 134.04 416.265 133.585C416.265 133.305 416.405 133.06 416.72 132.885C419.555 131.45 419.8 129.455 419.8 126.725V125.535C419.8 124.24 420.535 123.015 422.46 122.945C423.16 122.91 424 122.875 424.945 122.875C428.655 122.875 429.355 123.295 429.355 126.725C429.355 128.16 429.32 129.595 429.32 130.785C429.32 131.87 429.95 132.08 430.93 132.08C433.17 132.08 433.555 131.45 433.555 128.79C433.555 128.335 433.975 128.09 434.395 128.09C435.375 128.09 435.375 128.79 435.375 129.245ZM445.595 151.225L445.7 136.42C444.51 138.94 442.9 141.495 441.57 143.28C441.325 143.63 441.01 143.77 440.73 143.77C440.24 143.77 439.785 143.35 439.785 142.86C439.785 142.615 439.89 142.37 440.1 142.125C441.745 140.305 444.405 136.385 445.7 133.06V131.87L441.605 131.905C441.045 131.905 440.765 131.485 440.765 131.065C440.765 130.645 441.045 130.225 441.605 130.225H445.665L445.63 125.36C443.95 125.745 442.06 126.025 441.815 126.025C441.325 126.025 441.045 125.535 441.045 125.08C441.045 124.765 441.22 124.45 441.605 124.38C444.37 123.995 446.89 123.505 449.69 122.28C449.76 122.245 449.865 122.21 449.935 122.21C450.39 122.21 450.845 122.665 450.845 123.12C450.845 123.68 450.355 124.03 447.45 124.87L447.38 130.225H450.775C451.335 130.225 451.58 130.645 451.58 131.065C451.58 131.485 451.335 131.905 450.775 131.905L447.38 131.87C447.38 133.13 447.345 134.215 447.345 134.81H447.485C448.045 134.81 451.51 137.715 451.51 138.66C451.51 139.185 451.055 139.64 450.6 139.64C450.355 139.64 450.145 139.535 449.97 139.255C449.375 138.345 448.185 136.98 447.345 136.21C447.38 139.85 447.485 151.26 447.485 151.26C447.485 151.82 447.03 152.1 446.54 152.1C446.085 152.1 445.595 151.82 445.595 151.225ZM454.17 151.33V151.365C454.17 151.855 453.75 152.1 453.295 152.1C452.875 152.1 452.42 151.855 452.385 151.33C452.35 149.44 452.35 147.375 452.35 145.345C452.35 143.315 452.35 141.355 452.385 139.745C452.42 138.065 453.33 136.98 455.57 136.945C457.04 136.91 459.42 136.91 461.73 136.91C463.41 136.91 465.02 136.91 466.14 136.945C468.275 137.015 469.36 138.03 469.43 139.815C469.465 140.48 469.5 141.46 469.5 145.345C469.5 145.905 469.57 146.745 469.57 147.97V148.075C469.57 149.965 468.695 151.715 465.23 151.715C462.325 151.715 461.905 151.19 461.905 150.595C461.905 150.14 462.22 149.72 462.745 149.72H462.92C463.9 149.895 464.74 150 465.44 150C466.945 150 467.75 149.475 467.75 147.76C467.75 147.55 467.715 142.755 467.645 140.165C467.61 139.08 467.05 138.415 465.79 138.38C464.81 138.345 463.235 138.345 461.555 138.345C459.315 138.345 456.97 138.345 455.955 138.38C454.66 138.415 454.205 139.01 454.17 140.2C454.135 141.81 454.1 143.805 454.1 145.905C454.1 147.69 454.135 149.545 454.17 151.33ZM466.7 132.08C466.7 134.915 465.755 134.915 460.61 134.915C455.57 134.915 455.115 134.81 455.115 132.045C455.115 130.47 455.185 129.35 457.635 129.245C458.615 129.21 460.085 129.21 461.485 129.21C466 129.21 466.7 129.245 466.7 132.08ZM457.005 145.45C457.005 144.925 456.97 144.4 456.97 143.91C456.97 140.83 457.145 140.48 460.925 140.48C464.355 140.48 464.81 140.585 464.81 144.225C464.81 146.675 464.6 147.34 460.68 147.34C458.685 147.34 457.11 147.2 457.005 145.45ZM469.605 127.18H452.77C452.245 127.18 451.965 126.795 451.965 126.375C451.965 125.99 452.245 125.605 452.77 125.605L460.015 125.64L459.98 122.525C459.98 121.93 460.47 121.65 460.995 121.65C461.485 121.65 461.975 121.93 461.975 122.525L461.94 125.64L469.605 125.605C470.165 125.605 470.41 125.99 470.41 126.375C470.41 126.795 470.165 127.18 469.605 127.18ZM464.88 132.78V131.765C464.88 130.505 464.74 130.505 460.82 130.505C459.735 130.505 458.685 130.505 457.985 130.54C457.04 130.575 456.83 130.75 456.83 132.045C456.83 133.655 456.865 133.62 460.89 133.62C464.67 133.62 464.845 133.515 464.88 132.78ZM463.2 144.015C463.2 142.02 463.2 141.775 460.89 141.775C458.755 141.775 458.51 141.81 458.51 143.91C458.51 145.8 458.51 146.01 460.89 146.01C462.99 146.01 463.2 145.8 463.2 144.015ZM489.275 137.82C488.435 143.035 485.81 147.305 480.49 150.56C480.14 150.77 479.825 150.875 479.545 150.875C478.88 150.875 478.46 150.42 478.46 149.895C478.46 149.51 478.705 149.09 479.335 148.775C484.9 146.01 487.455 140.585 487.455 135.02C487.455 134.46 487.42 133.9 487.385 133.34V133.165C487.385 132.43 487.875 132.08 488.435 132.08C488.995 132.08 489.59 132.5 489.59 133.27C489.59 134.32 489.59 135.335 489.485 136.35L489.87 136.14C495.61 133.935 499.145 130.4 499.145 129.105C499.145 128.685 498.795 128.37 497.92 128.37H496.205C491.725 128.37 484.27 128.475 479.895 128.685H479.79C479.055 128.685 478.705 128.265 478.705 127.81C478.705 127.355 479.09 126.865 479.825 126.83C483.99 126.62 489.625 126.62 498.41 126.62C500.37 126.62 501.49 127.635 501.49 128.965C501.49 132.36 492.145 137.995 489.94 137.995C489.66 137.995 489.45 137.925 489.275 137.82ZM541.775 125.22C541.775 127.145 540.165 128.685 538.24 128.685C536.315 128.685 534.775 127.145 534.775 125.22C534.775 123.295 536.315 121.72 538.24 121.72C540.165 121.72 541.775 123.295 541.775 125.22ZM516.26 130.715H516.225C515.56 130.715 515.21 130.19 515.21 129.7C515.21 129.21 515.525 128.755 516.225 128.72C519.48 128.58 523.785 128.51 527.6 128.51C529.245 128.51 530.82 128.51 532.185 128.545C534.215 128.58 535.405 129.7 535.405 131.31C535.405 131.73 535.3 132.15 535.16 132.605C532.745 139.57 528.37 146.36 518.675 150.035C518.395 150.14 518.15 150.175 517.94 150.175C517.24 150.175 516.82 149.72 516.82 149.195C516.82 148.74 517.1 148.285 517.765 148.075C529.21 144.435 533.06 133.34 533.06 131.59C533.06 130.435 532.36 130.365 529.665 130.365C525.955 130.365 520.565 130.575 516.26 130.715ZM540.48 125.22C540.48 124.03 539.43 123.015 538.24 123.015C537.015 123.015 536.07 124.03 536.07 125.22C536.07 126.41 537.05 127.39 538.24 127.39C539.43 127.39 540.48 126.445 540.48 125.22ZM566.59 125.5V127.11C566.59 129.875 566.695 132.99 566.695 135.475C566.695 141.425 564.91 147.375 557.63 151.54C557.315 151.715 557.035 151.785 556.79 151.785C556.195 151.785 555.81 151.33 555.81 150.84C555.81 150.49 555.985 150.105 556.44 149.86C563.09 146.185 564.63 141.075 564.63 135.545C564.63 132.745 564.455 128.405 564.455 125.57C564.455 124.835 564.98 124.485 565.505 124.485C566.065 124.485 566.59 124.835 566.59 125.5ZM555.705 139.78C555.215 139.78 554.725 139.43 554.725 138.8V138.73C554.795 137.33 554.83 135.615 554.83 133.83C554.83 131.1 554.76 128.23 554.655 126.165V126.095C554.655 125.465 555.145 125.15 555.67 125.15C556.16 125.15 556.65 125.465 556.685 126.095C556.79 128.055 556.825 131.1 556.825 133.9C556.825 135.65 556.825 137.365 556.79 138.625C556.755 139.395 556.23 139.78 555.705 139.78Z" fill="white"/>
<circle cx="101" cy="93" r="68" fill="white"/>
<path fill-rule="evenodd" clip-rule="evenodd" d="M118.787 50.6207C118.318 50.9618 117.815 51.4793 117.67 51.7706C117.254 52.6113 116.728 54.3515 116.731 54.8817C116.733 55.1485 116.589 56.0568 116.411 56.9001C116.233 57.7434 115.877 59.5175 115.621 60.8426C115.364 62.1677 115.015 63.9294 114.846 64.7573C114.135 68.2368 114.631 69.9948 116.613 71.0146C117.702 71.5751 117.702 71.5751 127.126 71.6397C133.654 71.6846 136.827 71.6281 137.448 71.4566C139.239 70.9613 140.327 69.4965 140.697 67.0821C140.85 66.0831 141.158 64.4695 141.909 60.7331C142.961 55.4963 143.064 54.8062 142.975 53.5809C142.9 52.5386 142.757 52.1472 142.245 51.5715C140.772 49.9185 141.416 50.0007 129.932 50.0007C119.642 50.0007 119.642 50.0007 118.787 50.6207ZM113.305 77.3506C112.927 77.562 112.436 77.9171 112.213 78.1398C111.721 78.6322 111.034 80.119 111.034 80.6919C111.034 80.9217 110.894 81.6747 110.723 82.3655C110.417 83.5998 109.801 86.289 109.13 89.3164C108.751 91.0288 108.178 92.486 107.882 92.4899C107.775 92.4913 107.578 92.6262 107.444 92.7896C107.31 92.953 106.78 93.2487 106.266 93.4467C105.434 93.7664 103.825 93.8065 91.7877 93.8065C78.2451 93.8065 78.2451 93.8065 77.3671 94.4426C75.7554 95.61 75.5511 96.1839 75.5511 99.5394C75.5511 102.249 75.5903 102.535 76.0439 103.146C77.1828 104.68 78.1588 105.196 79.9194 105.196C81.5361 105.196 82.7118 105.726 83.5592 106.837C84.0669 107.503 84.1701 107.909 84.325 109.851C84.4235 111.085 84.5843 112.347 84.682 112.655C84.9039 113.353 85.7178 114.395 86.0413 114.395C86.1744 114.395 86.2835 114.478 86.2835 114.579C86.2835 115.22 87.6284 115.271 104.353 115.271C121.079 115.271 120.767 114.253 121.657 113.518C123.738 111.801 124.649 110.134 124.925 108.81C125.126 107.846 125.433 106.392 125.609 105.579C125.784 104.766 126.081 103.386 126.269 102.513C126.456 101.639 126.794 100.136 127.018 99.1728C127.243 98.209 127.592 96.632 127.795 95.6683C127.997 94.7046 128.309 93.2261 128.487 92.3828C128.665 91.5396 128.95 90.3481 129.121 89.7352C129.292 89.1224 129.432 88.3991 129.432 88.1284C129.432 87.8575 129.621 86.9299 129.852 86.0669C130.418 83.9526 130.973 81.3113 130.964 80.7743C130.953 80.1674 130.214 78.5965 129.711 78.1107C128.508 76.9485 128.446 76.9404 120.966 76.9538C114.738 76.9652 113.917 77.0076 113.305 77.3506ZM62.8351 111.283C61.478 111.792 61.0165 112.163 60.4676 113.187C60.0364 113.992 60 114.389 60 118.289C60 122.062 60.0464 122.608 60.4313 123.362C60.9758 124.429 62.0825 125.128 63.2298 125.128C64.6106 125.128 64.6942 125.357 64.8186 129.487C64.9181 132.784 64.9746 133.197 65.428 133.926C66.4219 135.524 66.8753 135.641 72.0913 135.641C76.7106 135.641 76.7106 135.641 77.6347 134.884C79.3153 133.507 79.2748 133.795 79.273 123.233C79.2715 112.96 79.3377 113.518 77.9604 112.146C76.8506 111.041 75.8371 110.89 69.5749 110.9C64.7104 110.908 63.6806 110.966 62.8351 111.283ZM88.2375 121.047C86.1247 121.802 85.1923 123.305 85.1897 125.962C85.1877 127.695 85.569 128.892 86.418 129.818C87.5432 131.046 88.6063 131.255 93.7305 131.255C98.7423 131.255 99.9321 131.035 100.957 129.914C101.864 128.921 102.116 127.822 102.014 125.295C101.929 123.162 101.929 123.162 101.079 122.291C99.7247 120.905 98.9535 120.746 93.6368 120.757C90.4648 120.763 88.7763 120.854 88.2375 121.047Z" fill="#43CEA2"/>
<path d="M88 102L99.2583 82.5H76.7417L88 102Z" fill="#185A9D"/>
<circle cx="88" cy="70" r="22" fill="#185A9D"/>
<circle cx="88.5" cy="70.5" r="2.5" fill="white"/>
<circle cx="97.5" cy="70.5" r="2.5" fill="white"/>
<circle cx="78.5" cy="70.5" r="2.5" fill="white"/>
</g>
<defs>
<clipPath id="clip0_61_27">
<rect width="590" height="186" fill="white"/>
</clipPath>
</defs>
</svg>
