<svg width="648" height="648" viewBox="0 0 648 648" fill="none" xmlns="http://www.w3.org/2000/svg">
<circle cx="324.5" cy="324.5" r="312.5" fill="#185A9D"/>
<path fill-rule="evenodd" clip-rule="evenodd" d="M404.4 130.834C402.255 132.391 399.96 134.754 399.3 136.084C397.397 139.922 394.999 147.867 395.013 150.288C395.02 151.506 394.362 155.653 393.55 159.503C392.738 163.353 391.114 171.453 389.941 177.503C388.768 183.553 387.176 191.596 386.404 195.376C383.159 211.262 385.425 219.288 394.471 223.944C399.443 226.503 399.443 226.503 442.471 226.798C472.273 227.003 486.759 226.745 489.595 225.962C497.774 223.701 502.743 217.013 504.432 205.99C505.13 201.429 506.536 194.062 509.963 177.003C514.766 153.094 515.236 149.943 514.831 144.349C514.487 139.59 513.837 137.803 511.496 135.175C504.771 127.628 507.711 128.003 455.282 128.003C408.3 128.003 408.3 128.003 404.4 130.834ZM379.367 252.872C377.644 253.837 375.402 255.458 374.385 256.475C372.137 258.723 369 265.511 369 268.127C369 269.176 368.361 272.614 367.58 275.768C366.184 281.403 363.372 293.681 360.31 307.503C358.579 315.321 355.961 321.974 354.61 321.992C354.121 321.998 353.221 322.614 352.61 323.36C352 324.106 349.578 325.456 347.23 326.36C343.434 327.82 336.087 328.003 281.13 328.003C219.3 328.003 219.3 328.003 215.291 330.907C207.933 336.237 207 338.857 207 354.177C207 366.548 207.179 367.855 209.25 370.644C214.45 377.646 218.906 380.003 226.944 380.003C234.325 380.003 239.693 382.423 243.562 387.496C245.88 390.534 246.351 392.388 247.058 401.255C247.508 406.891 248.242 412.653 248.688 414.058C249.701 417.245 253.417 422.003 254.894 422.003C255.502 422.003 256 422.381 256 422.842C256 425.768 262.14 426.003 338.5 426.003C414.86 426.003 413.438 421.353 417.5 418C427 410.158 431.16 402.549 432.42 396.503C433.337 392.103 434.743 385.465 435.544 381.753C436.345 378.04 437.7 371.741 438.557 367.753C439.413 363.765 440.953 356.903 441.979 352.503C443.004 348.103 444.6 340.903 445.525 336.503C446.449 332.103 447.87 325.353 448.682 321.503C449.495 317.653 450.798 312.213 451.58 309.415C452.361 306.617 453 303.315 453 302.079C453 300.842 453.863 296.607 454.918 292.667C457.502 283.014 460.033 270.955 459.991 268.503C459.943 265.732 456.571 258.56 454.273 256.342C448.779 251.036 448.496 250.999 414.346 251.06C385.912 251.112 382.164 251.306 379.367 252.872ZM148.944 407.795C142.748 410.118 140.641 411.812 138.135 416.488C136.166 420.163 136 421.976 136 439.778C136 457.008 136.212 459.498 137.969 462.942C140.455 467.815 145.508 471.003 150.746 471.003C157.05 471.003 157.432 472.051 158 490.906C158.454 505.96 158.712 507.844 160.782 511.173C165.32 518.47 167.39 519.003 191.204 519.003C212.294 519.003 212.294 519.003 216.513 515.546C224.186 509.258 224.001 510.576 223.993 462.352C223.986 415.452 224.288 417.998 218 411.735C212.933 406.687 208.306 405.999 179.715 406.045C157.506 406.08 152.804 406.347 148.944 407.795ZM264.921 452.37C255.275 455.819 251.018 462.683 251.006 474.81C250.997 482.722 252.738 488.188 256.614 492.418C261.751 498.025 266.605 498.979 290 498.979C312.882 498.979 318.314 497.971 322.993 492.853C327.136 488.32 328.284 483.305 327.821 471.766C327.43 462.028 327.43 462.028 323.549 458.053C317.367 451.722 313.846 450.996 289.572 451.047C275.09 451.077 267.381 451.491 264.921 452.37Z" fill="white"/>
<circle cx="253" cy="211" r="103" fill="#43CEA2"/>
<path d="M252.5 359L304.895 268.25H200.105L252.5 359Z" fill="#43CEA2"/>
<circle cx="252.5" cy="210.5" r="12.5" fill="#185A9D"/>
<circle cx="298.5" cy="210.5" r="12.5" fill="#185A9D"/>
<circle cx="206.5" cy="210.5" r="12.5" fill="#185A9D"/>
</svg>
