<svg width="175" height="40" viewBox="0 0 175 40" fill="none" xmlns="http://www.w3.org/2000/svg">
<g clip-path="url(#clip0_83_32)">
<path d="M171 0H4C1.79086 0 0 1.79086 0 4V36C0 38.2091 1.79086 40 4 40H171C173.209 40 175 38.2091 175 36V4C175 1.79086 173.209 0 171 0Z" fill="#F2F2F2"/>
<mask id="mask0_83_32" style="mask-type:luminance" maskUnits="userSpaceOnUse" x="12" y="10" width="20" height="20">
<path d="M32 10H12V30H32V10Z" fill="white"/>
</mask>
<g mask="url(#mask0_83_32)">
<path d="M31.6 20.2274C31.6 19.5183 31.5364 18.8365 31.4182 18.1819H22V22.0501H27.3818C27.15 23.3001 26.4455 24.3592 25.3864 25.0683V27.5774H28.6182C30.5091 25.8365 31.6 23.2728 31.6 20.2274Z" fill="#4285F4"/>
<path d="M22.0001 29.9999C24.7001 29.9999 26.9637 29.1044 28.6182 27.5772L25.3864 25.0681C24.491 25.6681 23.3455 26.0226 22.0001 26.0226C19.3955 26.0226 17.191 24.2635 16.4046 21.8999H13.0637V24.4908C14.7092 27.759 18.091 29.9999 22.0001 29.9999Z" fill="#34A853"/>
<path d="M16.4045 21.8999C16.2045 21.2999 16.0909 20.659 16.0909 19.9999C16.0909 19.3408 16.2045 18.6999 16.4045 18.0999V15.509H13.0636C12.3864 16.859 12 18.3863 12 19.9999C12 21.6135 12.3864 23.1408 13.0636 24.4908L16.4045 21.8999Z" fill="#FBBC04"/>
<path d="M22.0001 13.9773C23.4682 13.9773 24.7864 14.4818 25.8228 15.4727L28.691 12.6045C26.9592 10.9909 24.6955 10 22.0001 10C18.091 10 14.7092 12.2409 13.0637 15.5091L16.4046 18.1C17.191 15.7364 19.3955 13.9773 22.0001 13.9773Z" fill="#E94235"/>
</g>
<path d="M50.7158 19.8525V23.7285C50.57 23.9154 50.3398 24.1182 50.0254 24.3369C49.7155 24.5557 49.3099 24.7448 48.8086 24.9043C48.3073 25.0592 47.6921 25.1367 46.9629 25.1367C46.3294 25.1367 45.7507 25.0319 45.2266 24.8223C44.7025 24.6081 44.2513 24.2959 43.873 23.8857C43.4948 23.4756 43.2031 22.9743 42.998 22.3818C42.793 21.7894 42.6904 21.1126 42.6904 20.3516V19.6953C42.6904 18.9342 42.7861 18.2575 42.9775 17.665C43.1735 17.0726 43.4515 16.5713 43.8115 16.1611C44.1761 15.751 44.6113 15.4388 45.1172 15.2246C45.6276 15.0104 46.1973 14.9033 46.8262 14.9033C47.6693 14.9033 48.362 15.0423 48.9043 15.3203C49.4512 15.5983 49.8704 15.9811 50.1621 16.4688C50.4538 16.9518 50.6361 17.5078 50.709 18.1367H48.877C48.8268 17.7904 48.7266 17.4873 48.5762 17.2275C48.4258 16.9632 48.2116 16.7581 47.9336 16.6123C47.6602 16.4619 47.3047 16.3867 46.8672 16.3867C46.498 16.3867 46.1722 16.4596 45.8896 16.6055C45.6071 16.7513 45.3701 16.9632 45.1787 17.2412C44.9873 17.5192 44.8415 17.8633 44.7412 18.2734C44.6455 18.6836 44.5977 19.153 44.5977 19.6816V20.3516C44.5977 20.8848 44.6523 21.3587 44.7617 21.7734C44.8711 22.1836 45.0283 22.5299 45.2334 22.8125C45.443 23.0905 45.7005 23.3024 46.0059 23.4482C46.3158 23.5895 46.6667 23.6602 47.0586 23.6602C47.4141 23.6602 47.708 23.6305 47.9404 23.5713C48.1774 23.5075 48.3665 23.4323 48.5078 23.3457C48.6491 23.2591 48.7585 23.1748 48.8359 23.0928V21.2266H46.8604V19.8525H50.7158ZM52.3152 21.377V21.2334C52.3152 20.6911 52.3926 20.1921 52.5476 19.7363C52.7025 19.276 52.9281 18.8773 53.2243 18.54C53.5206 18.2028 53.8829 17.9408 54.3112 17.7539C54.7396 17.5625 55.2273 17.4668 55.7741 17.4668C56.3301 17.4668 56.8223 17.5625 57.2507 17.7539C57.6836 17.9408 58.0482 18.2028 58.3445 18.54C58.6407 18.8773 58.8663 19.276 59.0212 19.7363C59.1762 20.1921 59.2536 20.6911 59.2536 21.2334V21.377C59.2536 21.9147 59.1762 22.4137 59.0212 22.874C58.8663 23.3298 58.6407 23.7285 58.3445 24.0703C58.0482 24.4076 57.6859 24.6696 57.2575 24.8564C56.8292 25.0433 56.3392 25.1367 55.7878 25.1367C55.2409 25.1367 54.751 25.0433 54.3181 24.8564C53.8851 24.6696 53.5206 24.4076 53.2243 24.0703C52.9281 23.7285 52.7025 23.3298 52.5476 22.874C52.3926 22.4137 52.3152 21.9147 52.3152 21.377ZM54.1198 21.2334V21.377C54.1198 21.7005 54.1517 22.0036 54.2155 22.2861C54.2793 22.5687 54.3773 22.8171 54.5095 23.0312C54.6417 23.2454 54.8126 23.4141 55.0222 23.5371C55.2364 23.6556 55.4916 23.7148 55.7878 23.7148C56.0795 23.7148 56.3301 23.6556 56.5398 23.5371C56.7494 23.4141 56.9203 23.2454 57.0525 23.0312C57.1892 22.8171 57.2894 22.5687 57.3532 22.2861C57.417 22.0036 57.4489 21.7005 57.4489 21.377V21.2334C57.4489 20.9144 57.417 20.6159 57.3532 20.3379C57.2894 20.0553 57.1892 19.807 57.0525 19.5928C56.9203 19.374 56.7471 19.2031 56.5329 19.0801C56.3233 18.9525 56.0704 18.8887 55.7741 18.8887C55.4825 18.8887 55.2318 18.9525 55.0222 19.0801C54.8126 19.2031 54.6417 19.374 54.5095 19.5928C54.3773 19.807 54.2793 20.0553 54.2155 20.3379C54.1517 20.6159 54.1198 20.9144 54.1198 21.2334ZM60.5248 21.377V21.2334C60.5248 20.6911 60.6023 20.1921 60.7573 19.7363C60.9122 19.276 61.1378 18.8773 61.434 18.54C61.7302 18.2028 62.0926 17.9408 62.5209 17.7539C62.9493 17.5625 63.437 17.4668 63.9838 17.4668C64.5398 17.4668 65.032 17.5625 65.4604 17.7539C65.8933 17.9408 66.2579 18.2028 66.5541 18.54C66.8504 18.8773 67.0759 19.276 67.2309 19.7363C67.3858 20.1921 67.4633 20.6911 67.4633 21.2334V21.377C67.4633 21.9147 67.3858 22.4137 67.2309 22.874C67.0759 23.3298 66.8504 23.7285 66.5541 24.0703C66.2579 24.4076 65.8956 24.6696 65.4672 24.8564C65.0388 25.0433 64.5489 25.1367 63.9975 25.1367C63.4506 25.1367 62.9607 25.0433 62.5278 24.8564C62.0948 24.6696 61.7302 24.4076 61.434 24.0703C61.1378 23.7285 60.9122 23.3298 60.7573 22.874C60.6023 22.4137 60.5248 21.9147 60.5248 21.377ZM62.3295 21.2334V21.377C62.3295 21.7005 62.3614 22.0036 62.4252 22.2861C62.489 22.5687 62.587 22.8171 62.7192 23.0312C62.8513 23.2454 63.0222 23.4141 63.2319 23.5371C63.4461 23.6556 63.7013 23.7148 63.9975 23.7148C64.2892 23.7148 64.5398 23.6556 64.7495 23.5371C64.9591 23.4141 65.13 23.2454 65.2621 23.0312C65.3989 22.8171 65.4991 22.5687 65.5629 22.2861C65.6267 22.0036 65.6586 21.7005 65.6586 21.377V21.2334C65.6586 20.9144 65.6267 20.6159 65.5629 20.3379C65.4991 20.0553 65.3989 19.807 65.2621 19.5928C65.13 19.374 64.9568 19.2031 64.7426 19.0801C64.533 18.9525 64.2801 18.8887 63.9838 18.8887C63.6922 18.8887 63.4415 18.9525 63.2319 19.0801C63.0222 19.2031 62.8513 19.374 62.7192 19.5928C62.587 19.807 62.489 20.0553 62.4252 20.3379C62.3614 20.6159 62.3295 20.9144 62.3295 21.2334ZM73.7589 17.6035H75.3996V24.7744C75.3996 25.4443 75.2537 26.0117 74.9621 26.4766C74.675 26.946 74.2716 27.3014 73.7521 27.543C73.2326 27.7891 72.6287 27.9121 71.9406 27.9121C71.6444 27.9121 71.3231 27.8711 70.9767 27.7891C70.6349 27.707 70.3045 27.5771 69.9855 27.3994C69.6711 27.2262 69.409 27.0007 69.1994 26.7227L70.0129 25.6562C70.2589 25.9434 70.5369 26.1598 70.8468 26.3057C71.1567 26.4561 71.4917 26.5312 71.8517 26.5312C72.2163 26.5312 72.5262 26.4629 72.7814 26.3262C73.0412 26.194 73.2394 25.998 73.3761 25.7383C73.5174 25.4831 73.588 25.1686 73.588 24.7949V19.292L73.7589 17.6035ZM68.7619 21.3906V21.2471C68.7619 20.682 68.8302 20.1693 68.967 19.709C69.1037 19.2441 69.2996 18.8454 69.5548 18.5127C69.8146 18.18 70.1268 17.9225 70.4914 17.7402C70.8605 17.5579 71.2752 17.4668 71.7355 17.4668C72.2231 17.4668 72.6333 17.5557 72.966 17.7334C73.3032 17.9111 73.5812 18.1641 73.8 18.4922C74.0233 18.8203 74.1964 19.21 74.3195 19.6611C74.4471 20.1077 74.5451 20.5999 74.6134 21.1377V21.5273C74.5496 22.0514 74.4471 22.5322 74.3058 22.9697C74.1691 23.4072 73.9868 23.79 73.7589 24.1182C73.5311 24.4417 73.2485 24.6924 72.9113 24.8701C72.574 25.0479 72.1776 25.1367 71.7218 25.1367C71.2661 25.1367 70.856 25.0433 70.4914 24.8564C70.1268 24.6696 69.8146 24.4076 69.5548 24.0703C69.2996 23.7331 69.1037 23.3366 68.967 22.8809C68.8302 22.4251 68.7619 21.9284 68.7619 21.3906ZM70.5666 21.2471V21.3906C70.5666 21.7096 70.5985 22.0081 70.6623 22.2861C70.7261 22.5641 70.824 22.8102 70.9562 23.0244C71.0884 23.234 71.2547 23.3981 71.4552 23.5166C71.6558 23.6351 71.895 23.6943 72.173 23.6943C72.5467 23.6943 72.852 23.6169 73.089 23.4619C73.3306 23.3024 73.5129 23.0859 73.6359 22.8125C73.7635 22.5345 73.8455 22.2223 73.882 21.876V20.8027C73.8592 20.5293 73.8091 20.2764 73.7316 20.0439C73.6587 19.8115 73.5561 19.611 73.424 19.4424C73.2918 19.2738 73.1232 19.1416 72.9181 19.0459C72.713 18.9502 72.4692 18.9023 72.1867 18.9023C71.9132 18.9023 71.674 18.9639 71.4689 19.0869C71.2638 19.2054 71.0952 19.3717 70.963 19.5859C70.8309 19.8001 70.7306 20.0485 70.6623 20.3311C70.5985 20.6136 70.5666 20.9189 70.5666 21.2471ZM79.2206 14.5V25H77.4091V14.5H79.2206ZM84.5455 25.1367C83.985 25.1367 83.4814 25.0456 83.0348 24.8633C82.5882 24.681 82.2076 24.4281 81.8932 24.1045C81.5833 23.7764 81.344 23.3958 81.1754 22.9629C81.0113 22.5254 80.9293 22.056 80.9293 21.5547V21.2812C80.9293 20.7116 81.0113 20.1943 81.1754 19.7295C81.3395 19.2601 81.5719 18.8568 81.8727 18.5195C82.1734 18.1823 82.5335 17.9225 82.9527 17.7402C83.372 17.5579 83.8346 17.4668 84.3404 17.4668C84.8645 17.4668 85.3271 17.5557 85.7281 17.7334C86.1292 17.9066 86.4641 18.1527 86.733 18.4717C87.0019 18.7907 87.2047 19.1735 87.3414 19.6201C87.4781 20.0622 87.5465 20.5521 87.5465 21.0898V21.8486H81.7496V20.6045H85.7691V20.4678C85.76 20.1807 85.7053 19.9186 85.6051 19.6816C85.5048 19.4401 85.3499 19.2487 85.1402 19.1074C84.9306 18.9616 84.6594 18.8887 84.3268 18.8887C84.0579 18.8887 83.8232 18.9479 83.6227 19.0664C83.4267 19.1803 83.2626 19.3444 83.1305 19.5586C83.0029 19.7682 82.9072 20.0189 82.8434 20.3105C82.7796 20.6022 82.7477 20.9258 82.7477 21.2812V21.5547C82.7477 21.8646 82.7887 22.1517 82.8707 22.416C82.9573 22.6803 83.0826 22.9105 83.2467 23.1064C83.4153 23.2979 83.6158 23.4482 83.8482 23.5576C84.0852 23.6624 84.3541 23.7148 84.6549 23.7148C85.0331 23.7148 85.3749 23.6419 85.6803 23.4961C85.9902 23.3457 86.2591 23.1247 86.4869 22.833L87.3961 23.7764C87.2411 24.0042 87.0315 24.223 86.7672 24.4326C86.5074 24.6423 86.193 24.8132 85.8238 24.9453C85.4547 25.0729 85.0286 25.1367 84.5455 25.1367ZM89.189 15.41C89.735 15.396 90.295 15.368 90.561 15.34C91.723 15.228 94.033 15.032 96.595 14.808C98.051 14.696 99.577 14.598 100.571 14.556L100.585 16.362C99.829 16.362 98.625 16.376 97.869 16.544C96.189 16.992 94.915 18.812 94.915 20.478C94.915 22.774 97.071 23.614 99.437 23.726L98.779 25.644C95.853 25.462 93.081 23.88 93.081 20.842C93.081 18.84 94.215 17.244 95.153 16.53C93.851 16.67 90.981 16.978 89.371 17.328L89.189 15.41ZM98.583 17.734C98.919 18.224 99.423 19.078 99.689 19.638L98.639 20.1C98.275 19.344 97.981 18.784 97.547 18.168L98.583 17.734ZM100.137 17.09C100.501 17.58 101.033 18.406 101.327 18.952L100.277 19.456C99.899 18.7 99.577 18.168 99.129 17.552L100.137 17.09ZM110.833 17.748H116.055V19.302H110.833V17.748ZM103.245 14.5H109.545V15.872H103.245V14.5ZM103.105 20.072H109.531V21.486H103.105V20.072ZM103.063 17.622H109.657V19.008H103.063V17.622ZM113.101 18.42H114.725V26.19H113.101V18.42ZM105.583 13.226H107.221V15.116H105.583V13.226ZM105.583 18.924H107.221V26.246H105.583V18.924ZM110.077 14.22L112.037 14.766C112.023 14.906 111.925 14.976 111.673 15.018V19.134C111.673 21.22 111.407 24.314 109.503 26.288C109.293 25.924 108.677 25.35 108.299 25.14C109.923 23.418 110.077 21.024 110.077 19.106V14.22ZM114.655 13.254L115.999 14.472C114.571 15.116 112.667 15.592 111.029 15.9C110.945 15.536 110.707 14.948 110.511 14.626C112.009 14.29 113.661 13.786 114.655 13.254ZM107.095 21.542C107.529 21.808 108.873 22.858 109.209 23.138L108.243 24.342C107.781 23.782 106.717 22.732 106.199 22.27L107.095 21.542ZM103.945 16.082L105.233 15.774C105.485 16.278 105.681 16.964 105.751 17.426L104.379 17.79C104.351 17.328 104.169 16.614 103.945 16.082ZM107.431 15.746L108.915 16.026C108.649 16.67 108.411 17.272 108.201 17.706L106.871 17.426C107.067 16.95 107.305 16.236 107.431 15.746ZM105.597 20.898L106.787 21.332C106.101 22.872 104.939 24.482 103.819 25.392C103.553 25.028 103.063 24.468 102.713 24.202C103.819 23.488 104.981 22.13 105.597 20.898ZM117.553 15.27H122.691V16.74H117.553V15.27ZM117.315 18.518H122.915V20.03H117.315V18.518ZM119.359 13.254H120.941V18.308C120.941 20.926 120.619 24.16 118.267 26.092C118.043 25.742 117.511 25.168 117.133 24.874C119.219 23.348 119.359 20.436 119.359 18.308V13.254ZM120.717 20.268C121.193 20.702 122.761 22.508 123.111 22.928L121.977 24.146C121.459 23.292 120.283 21.752 119.681 21.052L120.717 20.268ZM124.903 17.244V18.056H127.969V17.244H124.903ZM124.903 19.386V20.212H127.969V19.386H124.903ZM124.903 15.088V15.9H127.969V15.088H124.903ZM123.349 13.604H129.579V21.696H123.349V13.604ZM126.527 21.178H128.095V24.104C128.095 24.496 128.109 24.538 128.319 24.538C128.403 24.538 128.711 24.538 128.809 24.538C129.033 24.538 129.075 24.342 129.117 22.858C129.411 23.11 130.083 23.362 130.489 23.474C130.349 25.476 129.971 25.98 128.977 25.98C128.739 25.98 128.277 25.98 128.039 25.98C126.793 25.98 126.527 25.504 126.527 24.132V21.178ZM124.259 21.458H125.841C125.617 23.642 125.043 25.308 122.467 26.274C122.299 25.896 121.879 25.308 121.557 25.014C123.727 24.3 124.091 23.068 124.259 21.458ZM135.487 16.852H140.667V18.252H135.487V16.852ZM132.043 24.608H144.139V25.98H132.043V24.608ZM132.855 13.632H136.775V14.99H132.855V13.632ZM136.243 13.632H136.523L136.817 13.562L137.909 14.108C136.873 16.852 134.661 18.854 132.309 19.988C132.085 19.638 131.637 19.064 131.301 18.77C133.387 17.888 135.473 15.984 136.243 13.912V13.632ZM139.435 13.156C140.401 15.438 142.361 17.468 144.797 18.392C144.405 18.728 143.915 19.358 143.663 19.792C141.087 18.616 139.169 16.376 138.007 13.604L139.435 13.156ZM132.183 16.152L133.079 15.228C133.709 15.578 134.479 16.124 134.843 16.544L133.905 17.566C133.541 17.146 132.785 16.544 132.183 16.152ZM141.591 13.24L142.851 14.136C142.081 14.794 141.171 15.48 140.471 15.928L139.463 15.144C140.135 14.668 141.059 13.856 141.591 13.24ZM143.173 14.878L144.405 15.746C143.607 16.446 142.641 17.174 141.899 17.636L140.891 16.852C141.619 16.348 142.599 15.522 143.173 14.878ZM135.613 20.394V21.626H140.401V20.394H135.613ZM133.975 19.05H142.137V22.956H133.975V19.05ZM134.787 23.138L136.327 22.746C136.691 23.25 136.999 23.964 137.125 24.44L135.515 24.902C135.417 24.426 135.109 23.684 134.787 23.138ZM139.785 22.732L141.409 23.082C141.059 23.768 140.737 24.398 140.457 24.846L138.987 24.51C139.267 24.02 139.617 23.264 139.785 22.732ZM157.607 19.414L158.923 20.212C158.335 20.856 157.719 21.528 157.215 21.976L156.165 21.276C156.627 20.786 157.257 19.988 157.607 19.414ZM151.377 20.324L152.469 19.61C153.043 20.128 153.659 20.856 153.925 21.388L152.749 22.172C152.525 21.64 151.923 20.87 151.377 20.324ZM151.979 13.59H157.761V18.504H156.207V14.962H151.979V13.59ZM152.287 15.704H157.089V16.992H152.287V15.704ZM151.307 17.706H158.811V19.134H151.307V17.706ZM154.191 18.434H155.745V24.678C155.745 25.364 155.661 25.77 155.213 26.008C154.793 26.246 154.233 26.26 153.463 26.26C153.421 25.84 153.239 25.238 153.057 24.818C153.449 24.832 153.869 24.832 154.009 24.832C154.149 24.832 154.191 24.79 154.191 24.636V18.434ZM150.901 23.964C151.615 23.558 152.665 22.9 153.701 22.228L154.205 23.488C153.379 24.118 152.469 24.776 151.671 25.308L150.901 23.964ZM155.703 19.428C156.151 21.094 157.215 23.18 159.133 24.16C158.797 24.454 158.293 25.112 158.055 25.532C156.221 24.356 155.213 21.948 154.779 20.324L155.703 19.428ZM146.743 16.6H150.887V18H146.743V16.6ZM146.071 19.022H151.181V20.45H146.071V19.022ZM146.211 21.234L147.275 20.968C147.513 21.752 147.709 22.732 147.779 23.404L146.645 23.698C146.617 23.026 146.421 22.018 146.211 21.234ZM145.917 24.44C147.247 24.244 149.235 23.88 151.125 23.544L151.251 24.93C149.501 25.294 147.653 25.686 146.239 25.966L145.917 24.44ZM150.089 20.856L151.293 21.15C151.041 21.948 150.817 22.83 150.607 23.418L149.599 23.138C149.781 22.508 149.991 21.528 150.089 20.856ZM147.989 17.16H149.431V24.706L147.989 24.958V17.16ZM147.919 13.114H148.801V13.422H149.277V13.856C148.731 14.92 147.877 16.362 146.491 17.622C146.267 17.286 145.791 16.754 145.483 16.53C146.659 15.522 147.485 14.206 147.919 13.114ZM148.129 13.114H149.305C150.117 13.814 151.153 14.822 151.657 15.536L150.579 16.824C150.131 16.11 149.179 14.934 148.423 14.304H148.129V13.114Z" fill="#1F1F1F"/>
</g>
<defs>
<clipPath id="clip0_83_32">
<rect width="175" height="40" fill="white"/>
</clipPath>
</defs>
</svg>
