<svg width="175" height="40" viewBox="0 0 175 40" fill="none" xmlns="http://www.w3.org/2000/svg">
<g clip-path="url(#clip0_82_3)">
<path d="M171 0H4C1.79086 0 0 1.79086 0 4V36C0 38.2091 1.79086 40 4 40H171C173.209 40 175 38.2091 175 36V4C175 1.79086 173.209 0 171 0Z" fill="#F2F2F2"/>
<mask id="mask0_82_3" style="mask-type:luminance" maskUnits="userSpaceOnUse" x="12" y="10" width="20" height="20">
<path d="M32 10H12V30H32V10Z" fill="white"/>
</mask>
<g mask="url(#mask0_82_3)">
<path d="M31.6 20.2274C31.6 19.5183 31.5364 18.8365 31.4182 18.1819H22V22.0501H27.3818C27.15 23.3001 26.4455 24.3592 25.3864 25.0683V27.5774H28.6182C30.5091 25.8365 31.6 23.2728 31.6 20.2274Z" fill="#4285F4"/>
<path d="M21.9999 29.9999C24.6999 29.9999 26.9635 29.1044 28.618 27.5772L25.3862 25.0681C24.4908 25.6681 23.3453 26.0226 21.9999 26.0226C19.3953 26.0226 17.1908 24.2635 16.4044 21.8999H13.0635V24.4908C14.709 27.759 18.0908 29.9999 21.9999 29.9999Z" fill="#34A853"/>
<path d="M16.4045 21.8999C16.2045 21.2999 16.0909 20.659 16.0909 19.9999C16.0909 19.3408 16.2045 18.6999 16.4045 18.0999V15.509H13.0636C12.3864 16.859 12 18.3863 12 19.9999C12 21.6135 12.3864 23.1408 13.0636 24.4908L16.4045 21.8999Z" fill="#FBBC04"/>
<path d="M21.9999 13.9773C23.468 13.9773 24.7862 14.4818 25.8226 15.4727L28.6908 12.6045C26.959 10.9909 24.6953 10 21.9999 10C18.0908 10 14.709 12.2409 13.0635 15.5091L16.4044 18.1C17.1908 15.7364 19.3953 13.9773 21.9999 13.9773Z" fill="#E94235"/>
</g>
<path d="M50.7158 19.8525V23.7285C50.57 23.9154 50.3398 24.1182 50.0254 24.3369C49.7155 24.5557 49.3099 24.7448 48.8086 24.9043C48.3073 25.0592 47.6921 25.1367 46.9629 25.1367C46.3294 25.1367 45.7507 25.0319 45.2266 24.8223C44.7025 24.6081 44.2513 24.2959 43.873 23.8857C43.4948 23.4756 43.2031 22.9743 42.998 22.3818C42.793 21.7894 42.6904 21.1126 42.6904 20.3516V19.6953C42.6904 18.9342 42.7861 18.2575 42.9775 17.665C43.1735 17.0726 43.4515 16.5713 43.8115 16.1611C44.1761 15.751 44.6113 15.4388 45.1172 15.2246C45.6276 15.0104 46.1973 14.9033 46.8262 14.9033C47.6693 14.9033 48.362 15.0423 48.9043 15.3203C49.4512 15.5983 49.8704 15.9811 50.1621 16.4688C50.4538 16.9518 50.6361 17.5078 50.709 18.1367H48.877C48.8268 17.7904 48.7266 17.4873 48.5762 17.2275C48.4258 16.9632 48.2116 16.7581 47.9336 16.6123C47.6602 16.4619 47.3047 16.3867 46.8672 16.3867C46.498 16.3867 46.1722 16.4596 45.8896 16.6055C45.6071 16.7513 45.3701 16.9632 45.1787 17.2412C44.9873 17.5192 44.8415 17.8633 44.7412 18.2734C44.6455 18.6836 44.5977 19.153 44.5977 19.6816V20.3516C44.5977 20.8848 44.6523 21.3587 44.7617 21.7734C44.8711 22.1836 45.0283 22.5299 45.2334 22.8125C45.443 23.0905 45.7005 23.3024 46.0059 23.4482C46.3158 23.5895 46.6667 23.6602 47.0586 23.6602C47.4141 23.6602 47.708 23.6305 47.9404 23.5713C48.1774 23.5075 48.3665 23.4323 48.5078 23.3457C48.6491 23.2591 48.7585 23.1748 48.8359 23.0928V21.2266H46.8604V19.8525H50.7158ZM52.3152 21.377V21.2334C52.3152 20.6911 52.3926 20.1921 52.5476 19.7363C52.7025 19.276 52.9281 18.8773 53.2243 18.54C53.5206 18.2028 53.8829 17.9408 54.3112 17.7539C54.7396 17.5625 55.2273 17.4668 55.7741 17.4668C56.3301 17.4668 56.8223 17.5625 57.2507 17.7539C57.6836 17.9408 58.0482 18.2028 58.3445 18.54C58.6407 18.8773 58.8663 19.276 59.0212 19.7363C59.1762 20.1921 59.2536 20.6911 59.2536 21.2334V21.377C59.2536 21.9147 59.1762 22.4137 59.0212 22.874C58.8663 23.3298 58.6407 23.7285 58.3445 24.0703C58.0482 24.4076 57.6859 24.6696 57.2575 24.8564C56.8292 25.0433 56.3392 25.1367 55.7878 25.1367C55.2409 25.1367 54.751 25.0433 54.3181 24.8564C53.8851 24.6696 53.5206 24.4076 53.2243 24.0703C52.9281 23.7285 52.7025 23.3298 52.5476 22.874C52.3926 22.4137 52.3152 21.9147 52.3152 21.377ZM54.1198 21.2334V21.377C54.1198 21.7005 54.1517 22.0036 54.2155 22.2861C54.2793 22.5687 54.3773 22.8171 54.5095 23.0312C54.6417 23.2454 54.8126 23.4141 55.0222 23.5371C55.2364 23.6556 55.4916 23.7148 55.7878 23.7148C56.0795 23.7148 56.3301 23.6556 56.5398 23.5371C56.7494 23.4141 56.9203 23.2454 57.0525 23.0312C57.1892 22.8171 57.2894 22.5687 57.3532 22.2861C57.417 22.0036 57.4489 21.7005 57.4489 21.377V21.2334C57.4489 20.9144 57.417 20.6159 57.3532 20.3379C57.2894 20.0553 57.1892 19.807 57.0525 19.5928C56.9203 19.374 56.7471 19.2031 56.5329 19.0801C56.3233 18.9525 56.0704 18.8887 55.7741 18.8887C55.4825 18.8887 55.2318 18.9525 55.0222 19.0801C54.8126 19.2031 54.6417 19.374 54.5095 19.5928C54.3773 19.807 54.2793 20.0553 54.2155 20.3379C54.1517 20.6159 54.1198 20.9144 54.1198 21.2334ZM60.5248 21.377V21.2334C60.5248 20.6911 60.6023 20.1921 60.7573 19.7363C60.9122 19.276 61.1378 18.8773 61.434 18.54C61.7302 18.2028 62.0926 17.9408 62.5209 17.7539C62.9493 17.5625 63.437 17.4668 63.9838 17.4668C64.5398 17.4668 65.032 17.5625 65.4604 17.7539C65.8933 17.9408 66.2579 18.2028 66.5541 18.54C66.8504 18.8773 67.0759 19.276 67.2309 19.7363C67.3858 20.1921 67.4633 20.6911 67.4633 21.2334V21.377C67.4633 21.9147 67.3858 22.4137 67.2309 22.874C67.0759 23.3298 66.8504 23.7285 66.5541 24.0703C66.2579 24.4076 65.8956 24.6696 65.4672 24.8564C65.0388 25.0433 64.5489 25.1367 63.9975 25.1367C63.4506 25.1367 62.9607 25.0433 62.5278 24.8564C62.0948 24.6696 61.7302 24.4076 61.434 24.0703C61.1378 23.7285 60.9122 23.3298 60.7573 22.874C60.6023 22.4137 60.5248 21.9147 60.5248 21.377ZM62.3295 21.2334V21.377C62.3295 21.7005 62.3614 22.0036 62.4252 22.2861C62.489 22.5687 62.587 22.8171 62.7192 23.0312C62.8513 23.2454 63.0222 23.4141 63.2319 23.5371C63.4461 23.6556 63.7013 23.7148 63.9975 23.7148C64.2892 23.7148 64.5398 23.6556 64.7495 23.5371C64.9591 23.4141 65.13 23.2454 65.2621 23.0312C65.3989 22.8171 65.4991 22.5687 65.5629 22.2861C65.6267 22.0036 65.6586 21.7005 65.6586 21.377V21.2334C65.6586 20.9144 65.6267 20.6159 65.5629 20.3379C65.4991 20.0553 65.3989 19.807 65.2621 19.5928C65.13 19.374 64.9568 19.2031 64.7426 19.0801C64.533 18.9525 64.2801 18.8887 63.9838 18.8887C63.6922 18.8887 63.4415 18.9525 63.2319 19.0801C63.0222 19.2031 62.8513 19.374 62.7192 19.5928C62.587 19.807 62.489 20.0553 62.4252 20.3379C62.3614 20.6159 62.3295 20.9144 62.3295 21.2334ZM73.7589 17.6035H75.3996V24.7744C75.3996 25.4443 75.2537 26.0117 74.9621 26.4766C74.675 26.946 74.2716 27.3014 73.7521 27.543C73.2326 27.7891 72.6287 27.9121 71.9406 27.9121C71.6444 27.9121 71.3231 27.8711 70.9767 27.7891C70.6349 27.707 70.3045 27.5771 69.9855 27.3994C69.6711 27.2262 69.409 27.0007 69.1994 26.7227L70.0129 25.6562C70.2589 25.9434 70.5369 26.1598 70.8468 26.3057C71.1567 26.4561 71.4917 26.5312 71.8517 26.5312C72.2163 26.5312 72.5262 26.4629 72.7814 26.3262C73.0412 26.194 73.2394 25.998 73.3761 25.7383C73.5174 25.4831 73.588 25.1686 73.588 24.7949V19.292L73.7589 17.6035ZM68.7619 21.3906V21.2471C68.7619 20.682 68.8302 20.1693 68.967 19.709C69.1037 19.2441 69.2996 18.8454 69.5548 18.5127C69.8146 18.18 70.1268 17.9225 70.4914 17.7402C70.8605 17.5579 71.2752 17.4668 71.7355 17.4668C72.2231 17.4668 72.6333 17.5557 72.966 17.7334C73.3032 17.9111 73.5812 18.1641 73.8 18.4922C74.0233 18.8203 74.1964 19.21 74.3195 19.6611C74.4471 20.1077 74.5451 20.5999 74.6134 21.1377V21.5273C74.5496 22.0514 74.4471 22.5322 74.3058 22.9697C74.1691 23.4072 73.9868 23.79 73.7589 24.1182C73.5311 24.4417 73.2485 24.6924 72.9113 24.8701C72.574 25.0479 72.1776 25.1367 71.7218 25.1367C71.2661 25.1367 70.856 25.0433 70.4914 24.8564C70.1268 24.6696 69.8146 24.4076 69.5548 24.0703C69.2996 23.7331 69.1037 23.3366 68.967 22.8809C68.8302 22.4251 68.7619 21.9284 68.7619 21.3906ZM70.5666 21.2471V21.3906C70.5666 21.7096 70.5985 22.0081 70.6623 22.2861C70.7261 22.5641 70.824 22.8102 70.9562 23.0244C71.0884 23.234 71.2547 23.3981 71.4552 23.5166C71.6558 23.6351 71.895 23.6943 72.173 23.6943C72.5467 23.6943 72.852 23.6169 73.089 23.4619C73.3306 23.3024 73.5129 23.0859 73.6359 22.8125C73.7635 22.5345 73.8455 22.2223 73.882 21.876V20.8027C73.8592 20.5293 73.8091 20.2764 73.7316 20.0439C73.6587 19.8115 73.5561 19.611 73.424 19.4424C73.2918 19.2738 73.1232 19.1416 72.9181 19.0459C72.713 18.9502 72.4692 18.9023 72.1867 18.9023C71.9132 18.9023 71.674 18.9639 71.4689 19.0869C71.2638 19.2054 71.0952 19.3717 70.963 19.5859C70.8309 19.8001 70.7306 20.0485 70.6623 20.3311C70.5985 20.6136 70.5666 20.9189 70.5666 21.2471ZM79.2206 14.5V25H77.4091V14.5H79.2206ZM84.5455 25.1367C83.985 25.1367 83.4814 25.0456 83.0348 24.8633C82.5882 24.681 82.2076 24.4281 81.8932 24.1045C81.5833 23.7764 81.344 23.3958 81.1754 22.9629C81.0113 22.5254 80.9293 22.056 80.9293 21.5547V21.2812C80.9293 20.7116 81.0113 20.1943 81.1754 19.7295C81.3395 19.2601 81.5719 18.8568 81.8727 18.5195C82.1734 18.1823 82.5335 17.9225 82.9527 17.7402C83.372 17.5579 83.8346 17.4668 84.3404 17.4668C84.8645 17.4668 85.3271 17.5557 85.7281 17.7334C86.1292 17.9066 86.4641 18.1527 86.733 18.4717C87.0019 18.7907 87.2047 19.1735 87.3414 19.6201C87.4781 20.0622 87.5465 20.5521 87.5465 21.0898V21.8486H81.7496V20.6045H85.7691V20.4678C85.76 20.1807 85.7053 19.9186 85.6051 19.6816C85.5048 19.4401 85.3499 19.2487 85.1402 19.1074C84.9306 18.9616 84.6594 18.8887 84.3268 18.8887C84.0579 18.8887 83.8232 18.9479 83.6227 19.0664C83.4267 19.1803 83.2626 19.3444 83.1305 19.5586C83.0029 19.7682 82.9072 20.0189 82.8434 20.3105C82.7796 20.6022 82.7477 20.9258 82.7477 21.2812V21.5547C82.7477 21.8646 82.7887 22.1517 82.8707 22.416C82.9573 22.6803 83.0826 22.9105 83.2467 23.1064C83.4153 23.2979 83.6158 23.4482 83.8482 23.5576C84.0852 23.6624 84.3541 23.7148 84.6549 23.7148C85.0331 23.7148 85.3749 23.6419 85.6803 23.4961C85.9902 23.3457 86.2591 23.1247 86.4869 22.833L87.3961 23.7764C87.2411 24.0042 87.0315 24.223 86.7672 24.4326C86.5074 24.6423 86.193 24.8132 85.8238 24.9453C85.4547 25.0729 85.0286 25.1367 84.5455 25.1367ZM89.189 15.41C89.735 15.396 90.295 15.368 90.561 15.34C91.723 15.228 94.033 15.032 96.595 14.808C98.051 14.696 99.577 14.598 100.571 14.556L100.585 16.362C99.829 16.362 98.625 16.376 97.869 16.544C96.189 16.992 94.915 18.812 94.915 20.478C94.915 22.774 97.071 23.614 99.437 23.726L98.779 25.644C95.853 25.462 93.081 23.88 93.081 20.842C93.081 18.84 94.215 17.244 95.153 16.53C93.851 16.67 90.981 16.978 89.371 17.328L89.189 15.41ZM98.583 17.734C98.919 18.224 99.423 19.078 99.689 19.638L98.639 20.1C98.275 19.344 97.981 18.784 97.547 18.168L98.583 17.734ZM100.137 17.09C100.501 17.58 101.033 18.406 101.327 18.952L100.277 19.456C99.899 18.7 99.577 18.168 99.129 17.552L100.137 17.09ZM104.267 15.074C104.827 15.088 105.359 15.102 105.737 15.102C106.759 15.102 112.443 15.102 113.451 15.102C113.801 15.102 114.319 15.102 114.837 15.088C114.809 15.508 114.809 16.012 114.809 16.446C114.809 17.3 114.809 22.452 114.809 23.306C114.809 23.852 114.823 25.196 114.837 25.252H112.891C112.891 25.196 112.933 24.104 112.933 23.334C112.933 22.522 112.933 16.894 112.933 16.894H106.157C106.157 16.894 106.157 22.508 106.157 23.334C106.157 24.006 106.171 25.182 106.171 25.252H104.253C104.253 25.182 104.281 23.95 104.281 23.278C104.281 22.438 104.281 17.258 104.281 16.446C104.281 16.04 104.281 15.48 104.267 15.074ZM113.619 22.704V24.482H105.205V22.704H113.619ZM127.689 13.534C128.039 14.052 128.529 14.934 128.795 15.452L127.675 15.942C127.381 15.368 126.947 14.528 126.569 13.996L127.689 13.534ZM129.341 12.904C129.705 13.436 130.223 14.318 130.475 14.808L129.355 15.284C129.061 14.71 128.613 13.884 128.235 13.366L129.341 12.904ZM128.935 16.614C128.781 16.894 128.585 17.272 128.473 17.622C128.095 18.868 127.297 20.744 126.037 22.298C124.707 23.922 123.013 25.21 120.381 26.246L118.729 24.776C121.599 23.908 123.153 22.69 124.371 21.304C125.323 20.212 126.135 18.532 126.359 17.496H121.641L122.285 15.9C122.915 15.9 125.841 15.9 126.289 15.9C126.723 15.9 127.185 15.844 127.507 15.732L128.935 16.614ZM124.371 14.402C124.049 14.892 123.685 15.536 123.517 15.83C122.579 17.524 120.899 19.498 118.897 20.87L117.315 19.708C119.779 18.21 120.997 16.404 121.697 15.2C121.907 14.864 122.201 14.206 122.327 13.73L124.371 14.402ZM131.931 19.568C134.437 18.924 136.481 18.014 138.049 17.048C139.477 16.166 141.073 14.766 141.983 13.66L143.495 15.088C142.221 16.376 140.513 17.692 138.861 18.686C137.279 19.624 135.011 20.674 132.799 21.332L131.931 19.568ZM137.755 17.958L139.743 17.482V23.796C139.743 24.412 139.771 25.28 139.869 25.63H137.643C137.699 25.294 137.755 24.412 137.755 23.796V17.958ZM148.717 14.36C149.683 15.018 151.503 16.474 152.329 17.328L150.901 18.784C150.173 18 148.409 16.474 147.387 15.774L148.717 14.36ZM146.953 23.684C149.151 23.376 150.957 22.662 152.315 21.864C154.709 20.436 156.529 18.308 157.425 16.418L158.503 18.378C157.453 20.282 155.591 22.214 153.337 23.572C151.909 24.426 150.103 25.196 148.143 25.532L146.953 23.684Z" fill="#1F1F1F"/>
</g>
<defs>
<clipPath id="clip0_82_3">
<rect width="175" height="40" fill="white"/>
</clipPath>
</defs>
</svg>
