<svg width="175" height="40" viewBox="0 0 175 40" fill="none" xmlns="http://www.w3.org/2000/svg">
<g clip-path="url(#clip0_83_27)">
<rect width="175" height="40" fill="white"/>
<rect width="175" height="40" rx="4" fill="black"/>
<g clip-path="url(#clip1_83_27)">
<path d="M23.3076 18.4643L30.3808 10H28.7046L22.563 17.3494L17.6577 10H12L19.4178 21.1136L12 29.9897H13.6762L20.1619 22.2285L25.3423 29.9897H31L23.3072 18.4643H23.3076ZM21.0118 21.2115L20.2602 20.1049L14.2802 11.299H16.8547L21.6807 18.4056L22.4323 19.5123L28.7054 28.7498H26.1309L21.0118 21.212V21.2115Z" fill="white"/>
</g>
<path d="M58.535 25L62.135 19.315L58.76 13.855H61.235L62.57 16.195C62.855 16.705 63.17 17.23 63.56 17.92H63.62C63.995 17.23 64.28 16.705 64.565 16.195L65.87 13.855H68.195L64.835 19.345L68.45 25H65.93L64.46 22.54C64.145 21.985 63.815 21.415 63.425 20.74H63.365C62.975 21.415 62.66 21.985 62.345 22.54L60.935 25H58.535ZM72.035 14.725C72.62 14.71 73.22 14.68 73.505 14.65C74.75 14.53 77.225 14.32 79.97 14.08C81.53 13.96 83.165 13.855 84.23 13.81L84.245 15.745C83.435 15.745 82.145 15.76 81.335 15.94C79.535 16.42 78.17 18.37 78.17 20.155C78.17 22.615 80.48 23.515 83.015 23.635L82.31 25.69C79.175 25.495 76.205 23.8 76.205 20.545C76.205 18.4 77.42 16.69 78.425 15.925C77.03 16.075 73.955 16.405 72.23 16.78L72.035 14.725ZM82.1 17.215C82.46 17.74 83 18.655 83.285 19.255L82.16 19.75C81.77 18.94 81.455 18.34 80.99 17.68L82.1 17.215ZM83.765 16.525C84.155 17.05 84.725 17.935 85.04 18.52L83.915 19.06C83.51 18.25 83.165 17.68 82.685 17.02L83.765 16.525ZM94.925 17.23H100.52V18.895H94.925V17.23ZM86.795 13.75H93.545V15.22H86.795V13.75ZM86.645 19.72H93.53V21.235H86.645V19.72ZM86.6 17.095H93.665V18.58H86.6V17.095ZM97.355 17.95H99.095V26.275H97.355V17.95ZM89.3 12.385H91.055V14.41H89.3V12.385ZM89.3 18.49H91.055V26.335H89.3V18.49ZM94.115 13.45L96.215 14.035C96.2 14.185 96.095 14.26 95.825 14.305V18.715C95.825 20.95 95.54 24.265 93.5 26.38C93.275 25.99 92.615 25.375 92.21 25.15C93.95 23.305 94.115 20.74 94.115 18.685V13.45ZM99.02 12.415L100.46 13.72C98.93 14.41 96.89 14.92 95.135 15.25C95.045 14.86 94.79 14.23 94.58 13.885C96.185 13.525 97.955 12.985 99.02 12.415ZM90.92 21.295C91.385 21.58 92.825 22.705 93.185 23.005L92.15 24.295C91.655 23.695 90.515 22.57 89.96 22.075L90.92 21.295ZM87.545 15.445L88.925 15.115C89.195 15.655 89.405 16.39 89.48 16.885L88.01 17.275C87.98 16.78 87.785 16.015 87.545 15.445ZM91.28 15.085L92.87 15.385C92.585 16.075 92.33 16.72 92.105 17.185L90.68 16.885C90.89 16.375 91.145 15.61 91.28 15.085ZM89.315 20.605L90.59 21.07C89.855 22.72 88.61 24.445 87.41 25.42C87.125 25.03 86.6 24.43 86.225 24.145C87.41 23.38 88.655 21.925 89.315 20.605ZM101.825 14.575H107.33V16.15H101.825V14.575ZM101.57 18.055H107.57V19.675H101.57V18.055ZM103.76 12.415H105.455V17.83C105.455 20.635 105.11 24.1 102.59 26.17C102.35 25.795 101.78 25.18 101.375 24.865C103.61 23.23 103.76 20.11 103.76 17.83V12.415ZM105.215 19.93C105.725 20.395 107.405 22.33 107.78 22.78L106.565 24.085C106.01 23.17 104.75 21.52 104.105 20.77L105.215 19.93ZM109.7 16.69V17.56H112.985V16.69H109.7ZM109.7 18.985V19.87H112.985V18.985H109.7ZM109.7 14.38V15.25H112.985V14.38H109.7ZM108.035 12.79H114.71V21.46H108.035V12.79ZM111.44 20.905H113.12V24.04C113.12 24.46 113.135 24.505 113.36 24.505C113.45 24.505 113.78 24.505 113.885 24.505C114.125 24.505 114.17 24.295 114.215 22.705C114.53 22.975 115.25 23.245 115.685 23.365C115.535 25.51 115.13 26.05 114.065 26.05C113.81 26.05 113.315 26.05 113.06 26.05C111.725 26.05 111.44 25.54 111.44 24.07V20.905ZM109.01 21.205H110.705C110.465 23.545 109.85 25.33 107.09 26.365C106.91 25.96 106.46 25.33 106.115 25.015C108.44 24.25 108.83 22.93 109.01 21.205ZM120.74 16.27H126.29V17.77H120.74V16.27ZM117.05 24.58H130.01V26.05H117.05V24.58ZM117.92 12.82H122.12V14.275H117.92V12.82ZM121.55 12.82H121.85L122.165 12.745L123.335 13.33C122.225 16.27 119.855 18.415 117.335 19.63C117.095 19.255 116.615 18.64 116.255 18.325C118.49 17.38 120.725 15.34 121.55 13.12V12.82ZM124.97 12.31C126.005 14.755 128.105 16.93 130.715 17.92C130.295 18.28 129.77 18.955 129.5 19.42C126.74 18.16 124.685 15.76 123.44 12.79L124.97 12.31ZM117.2 15.52L118.16 14.53C118.835 14.905 119.66 15.49 120.05 15.94L119.045 17.035C118.655 16.585 117.845 15.94 117.2 15.52ZM127.28 12.4L128.63 13.36C127.805 14.065 126.83 14.8 126.08 15.28L125 14.44C125.72 13.93 126.71 13.06 127.28 12.4ZM128.975 14.155L130.295 15.085C129.44 15.835 128.405 16.615 127.61 17.11L126.53 16.27C127.31 15.73 128.36 14.845 128.975 14.155ZM120.875 20.065V21.385H126.005V20.065H120.875ZM119.12 18.625H127.865V22.81H119.12V18.625ZM119.99 23.005L121.64 22.585C122.03 23.125 122.36 23.89 122.495 24.4L120.77 24.895C120.665 24.385 120.335 23.59 119.99 23.005ZM125.345 22.57L127.085 22.945C126.71 23.68 126.365 24.355 126.065 24.835L124.49 24.475C124.79 23.95 125.165 23.14 125.345 22.57ZM144.14 19.015L145.55 19.87C144.92 20.56 144.26 21.28 143.72 21.76L142.595 21.01C143.09 20.485 143.765 19.63 144.14 19.015ZM137.465 19.99L138.635 19.225C139.25 19.78 139.91 20.56 140.195 21.13L138.935 21.97C138.695 21.4 138.05 20.575 137.465 19.99ZM138.11 12.775H144.305V18.04H142.64V14.245H138.11V12.775ZM138.44 15.04H143.585V16.42H138.44V15.04ZM137.39 17.185H145.43V18.715H137.39V17.185ZM140.48 17.965H142.145V24.655C142.145 25.39 142.055 25.825 141.575 26.08C141.125 26.335 140.525 26.35 139.7 26.35C139.655 25.9 139.46 25.255 139.265 24.805C139.685 24.82 140.135 24.82 140.285 24.82C140.435 24.82 140.48 24.775 140.48 24.61V17.965ZM136.955 23.89C137.72 23.455 138.845 22.75 139.955 22.03L140.495 23.38C139.61 24.055 138.635 24.76 137.78 25.33L136.955 23.89ZM142.1 19.03C142.58 20.815 143.72 23.05 145.775 24.1C145.415 24.415 144.875 25.12 144.62 25.57C142.655 24.31 141.575 21.73 141.11 19.99L142.1 19.03ZM132.5 16H136.94V17.5H132.5V16ZM131.78 18.595H137.255V20.125H131.78V18.595ZM131.93 20.965L133.07 20.68C133.325 21.52 133.535 22.57 133.61 23.29L132.395 23.605C132.365 22.885 132.155 21.805 131.93 20.965ZM131.615 24.4C133.04 24.19 135.17 23.8 137.195 23.44L137.33 24.925C135.455 25.315 133.475 25.735 131.96 26.035L131.615 24.4ZM136.085 20.56L137.375 20.875C137.105 21.73 136.865 22.675 136.64 23.305L135.56 23.005C135.755 22.33 135.98 21.28 136.085 20.56ZM133.835 16.6H135.38V24.685L133.835 24.955V16.6ZM133.76 12.265H134.705V12.595H135.215V13.06C134.63 14.2 133.715 15.745 132.23 17.095C131.99 16.735 131.48 16.165 131.15 15.925C132.41 14.845 133.295 13.435 133.76 12.265ZM133.985 12.265H135.245C136.115 13.015 137.225 14.095 137.765 14.86L136.61 16.24C136.13 15.475 135.11 14.215 134.3 13.54H133.985V12.265Z" fill="white"/>
</g>
<defs>
<clipPath id="clip0_83_27">
<rect width="175" height="40" fill="white"/>
</clipPath>
<clipPath id="clip1_83_27">
<rect width="19" height="20" fill="white" transform="translate(12 10)"/>
</clipPath>
</defs>
</svg>
