<svg width="175" height="40" viewBox="0 0 175 40" fill="none" xmlns="http://www.w3.org/2000/svg">
<g clip-path="url(#clip0_82_2)">
<rect width="175" height="40" fill="white"/>
<rect width="175" height="40" rx="4" fill="black"/>
<g clip-path="url(#clip1_82_2)">
<path d="M23.3076 18.4643L30.3808 10H28.7046L22.563 17.3494L17.6577 10H12L19.4178 21.1136L12 29.9897H13.6762L20.1619 22.2285L25.3423 29.9897H31L23.3072 18.4643H23.3076ZM21.0118 21.2115L20.2602 20.1049L14.2802 11.299H16.8547L21.6807 18.4056L22.4323 19.5123L28.7054 28.7498H26.1309L21.0118 21.212V21.2115Z" fill="white"/>
</g>
<path d="M58.535 25L62.135 19.315L58.76 13.855H61.235L62.57 16.195C62.855 16.705 63.17 17.23 63.56 17.92H63.62C63.995 17.23 64.28 16.705 64.565 16.195L65.87 13.855H68.195L64.835 19.345L68.45 25H65.93L64.46 22.54C64.145 21.985 63.815 21.415 63.425 20.74H63.365C62.975 21.415 62.66 21.985 62.345 22.54L60.935 25H58.535ZM72.035 14.725C72.62 14.71 73.22 14.68 73.505 14.65C74.75 14.53 77.225 14.32 79.97 14.08C81.53 13.96 83.165 13.855 84.23 13.81L84.245 15.745C83.435 15.745 82.145 15.76 81.335 15.94C79.535 16.42 78.17 18.37 78.17 20.155C78.17 22.615 80.48 23.515 83.015 23.635L82.31 25.69C79.175 25.495 76.205 23.8 76.205 20.545C76.205 18.4 77.42 16.69 78.425 15.925C77.03 16.075 73.955 16.405 72.23 16.78L72.035 14.725ZM82.1 17.215C82.46 17.74 83 18.655 83.285 19.255L82.16 19.75C81.77 18.94 81.455 18.34 80.99 17.68L82.1 17.215ZM83.765 16.525C84.155 17.05 84.725 17.935 85.04 18.52L83.915 19.06C83.51 18.25 83.165 17.68 82.685 17.02L83.765 16.525ZM87.89 14.365C88.49 14.38 89.06 14.395 89.465 14.395C90.56 14.395 96.65 14.395 97.73 14.395C98.105 14.395 98.66 14.395 99.215 14.38C99.185 14.83 99.185 15.37 99.185 15.835C99.185 16.75 99.185 22.27 99.185 23.185C99.185 23.77 99.2 25.21 99.215 25.27H97.13C97.13 25.21 97.175 24.04 97.175 23.215C97.175 22.345 97.175 16.315 97.175 16.315H89.915C89.915 16.315 89.915 22.33 89.915 23.215C89.915 23.935 89.93 25.195 89.93 25.27H87.875C87.875 25.195 87.905 23.875 87.905 23.155C87.905 22.255 87.905 16.705 87.905 15.835C87.905 15.4 87.905 14.8 87.89 14.365ZM97.91 22.54V24.445H88.895V22.54H97.91ZM112.685 12.715C113.06 13.27 113.585 14.215 113.87 14.77L112.67 15.295C112.355 14.68 111.89 13.78 111.485 13.21L112.685 12.715ZM114.455 12.04C114.845 12.61 115.4 13.555 115.67 14.08L114.47 14.59C114.155 13.975 113.675 13.09 113.27 12.535L114.455 12.04ZM114.02 16.015C113.855 16.315 113.645 16.72 113.525 17.095C113.12 18.43 112.265 20.44 110.915 22.105C109.49 23.845 107.675 25.225 104.855 26.335L103.085 24.76C106.16 23.83 107.825 22.525 109.13 21.04C110.15 19.87 111.02 18.07 111.26 16.96H106.205L106.895 15.25C107.57 15.25 110.705 15.25 111.185 15.25C111.65 15.25 112.145 15.19 112.49 15.07L114.02 16.015ZM109.13 13.645C108.785 14.17 108.395 14.86 108.215 15.175C107.21 16.99 105.41 19.105 103.265 20.575L101.57 19.33C104.21 17.725 105.515 15.79 106.265 14.5C106.49 14.14 106.805 13.435 106.94 12.925L109.13 13.645ZM116.93 19.18C119.615 18.49 121.805 17.515 123.485 16.48C125.015 15.535 126.725 14.035 127.7 12.85L129.32 14.38C127.955 15.76 126.125 17.17 124.355 18.235C122.66 19.24 120.23 20.365 117.86 21.07L116.93 19.18ZM123.17 17.455L125.3 16.945V23.71C125.3 24.37 125.33 25.3 125.435 25.675H123.05C123.11 25.315 123.17 24.37 123.17 23.71V17.455ZM134.615 13.6C135.65 14.305 137.6 15.865 138.485 16.78L136.955 18.34C136.175 17.5 134.285 15.865 133.19 15.115L134.615 13.6ZM132.725 23.59C135.08 23.26 137.015 22.495 138.47 21.64C141.035 20.11 142.985 17.83 143.945 15.805L145.1 17.905C143.975 19.945 141.98 22.015 139.565 23.47C138.035 24.385 136.1 25.21 134 25.57L132.725 23.59Z" fill="white"/>
</g>
<defs>
<clipPath id="clip0_82_2">
<rect width="175" height="40" fill="white"/>
</clipPath>
<clipPath id="clip1_82_2">
<rect width="19" height="20" fill="white" transform="translate(12 10)"/>
</clipPath>
</defs>
</svg>
